<svg xmlns="http://www.w3.org/2000/svg" width="165" height="24" viewBox="0 0 165 24">
    <g fill="none" fill-rule="evenodd">
        <g>
            <g>
                <g>
                    <path fill="#FFF" fill-rule="nonzero" d="M5.266 21.102c-.179 0-.276-.196-.19-.337l.036-.044 8.912-8.718-8.913-8.724c-.128-.125-.06-.334.099-.374l.056-.007h1.56l.155.064 8.974 8.883c.073.073.085.184.036.27l-.037.047-9.016 8.891-.041.027-.047.016-.052.006H5.266zM18.312 2.898h-1.077c-.122 0-.221.1-.221.222v17.76c0 .123.099.222.221.222h1.077c.123 0 .222-.1.222-.222V3.12c0-.123-.1-.222-.222-.222z" transform="translate(-165 -24) translate(165 24)"/>
                    <path fill="#106FFF" d="M21.366 0c1.42 0 2.572 1.151 2.572 2.571V21.43c0 1.42-1.151 2.571-2.572 2.571H2.571C1.151 24 0 22.849 0 21.429V2.57C0 1.151 1.151 0 2.571 0zM6.826 2.898h-1.56l-.056.007c-.16.04-.227.249-.099.374l8.913 8.724-8.912 8.718-.036.044c-.086.141.011.337.19.337h1.532l.052-.006.047-.016.041-.027 9.016-8.891.037-.048c.05-.085.037-.196-.036-.269L6.98 2.962l-.156-.064zm11.486 0h-1.077c-.122 0-.221.1-.221.222v17.76c0 .123.099.222.221.222h1.077c.123 0 .222-.1.222-.222V3.12c0-.123-.1-.222-.222-.222z" transform="translate(-165 -24) translate(165 24)"/>
                </g>
                <g>
                    <path fill="#FFFFFE" d="M12.869 13.978L12.869 0.864 12.792 0.864 6.798 13.978 6.454 13.978 0.479 0.864 0.421 0.864 0.421 13.978 0 13.978 0 0.384 0.747 0.384 6.645 13.363 12.543 0.384 13.29 0.384 13.29 13.978 12.869 13.978" transform="translate(-165 -24) translate(165 24) translate(31.974 4.8)"/>
                    <path stroke="#FFFFFE" stroke-width=".643" d="M12.869 14.074L12.869 0.96 12.792 0.96 6.798 14.074 6.454 14.074 0.479 0.96 0.421 0.96 0.421 14.074 0 14.074 0 0.48 0.747 0.48 6.645 13.459 12.543 0.48 13.29 0.48 13.29 14.074z" transform="translate(-165 -24) translate(165 24) translate(31.974 4.8)"/>
                    <path fill="#FFFFFE" d="M29.213 7.181c0-.947-.16-1.834-.478-2.66-.32-.825-.77-1.545-1.35-2.16-.582-.614-1.274-1.097-2.078-1.449-.804-.352-1.685-.528-2.643-.528-.957 0-1.838.176-2.643.528-.804.352-1.497.835-2.077 1.45-.582.614-1.031 1.334-1.35 2.16-.32.825-.48 1.712-.48 2.659 0 .947.157 1.833.47 2.659.313.826.756 1.546 1.33 2.16.575.614 1.265 1.098 2.07 1.45.803.352 1.697.528 2.68.528.983 0 1.877-.176 2.681-.528.804-.352 1.494-.836 2.068-1.45.575-.614 1.018-1.334 1.331-2.16.313-.826.47-1.712.47-2.659zm.422 0c0 1.05-.176 2.013-.527 2.89-.351.876-.836 1.632-1.455 2.265-.62.634-1.357 1.13-2.212 1.488-.856.358-1.781.538-2.777.538-.996 0-1.921-.18-2.777-.538-.855-.358-1.592-.854-2.212-1.488-.619-.633-1.104-1.389-1.455-2.265-.351-.877-.527-1.84-.527-2.89s.176-2.013.527-2.89c.351-.876.836-1.632 1.455-2.265.62-.634 1.353-1.13 2.203-1.488C20.727.18 21.655 0 22.664 0c1.008 0 1.937.18 2.786.538.85.358 1.583.854 2.203 1.488.619.633 1.104 1.389 1.455 2.265.351.877.527 1.84.527 2.89z" transform="translate(-165 -24) translate(165 24) translate(31.974 4.8)"/>
                    <path stroke="#FFFFFE" stroke-width=".643" d="M29.319 7.181c0-.947-.16-1.834-.479-2.66-.319-.825-.77-1.545-1.35-2.16-.581-.614-1.273-1.097-2.078-1.449C24.608.56 23.727.384 22.77.384c-.958 0-1.839.176-2.643.528-.804.352-1.497.835-2.078 1.45-.581.614-1.03 1.334-1.35 2.16-.32.825-.479 1.712-.479 2.659 0 .947.156 1.833.47 2.659.312.826.756 1.546 1.33 2.16.575.614 1.264 1.098 2.069 1.45.804.352 1.698.528 2.68.528.984 0 1.877-.176 2.682-.528.804-.352 1.493-.836 2.068-1.45.574-.614 1.018-1.334 1.33-2.16.313-.826.47-1.712.47-2.659zm.421 0c0 1.05-.175 2.013-.526 2.89-.351.876-.837 1.632-1.456 2.265-.62.634-1.356 1.13-2.212 1.488-.855.358-1.78.538-2.776.538-.996 0-1.922-.18-2.777-.538-.856-.358-1.593-.854-2.212-1.488-.62-.633-1.104-1.389-1.455-2.265-.352-.877-.527-1.84-.527-2.89s.175-2.013.527-2.89c.35-.876.836-1.632 1.455-2.265.62-.634 1.353-1.13 2.202-1.488C20.833.18 21.761 0 22.77 0c1.008 0 1.937.18 2.786.538.849.358 1.583.854 2.202 1.488.62.633 1.105 1.389 1.456 2.265.35.877.526 1.84.526 2.89z" transform="translate(-165 -24) translate(165 24) translate(31.974 4.8)"/>
                    <path fill="#FFFFFE" d="M36.06 13.978L35.409 13.978 30.315 0.384 30.774 0.384 35.715 13.594 35.753 13.594 40.771 0.384 41.23 0.384 36.06 13.978" transform="translate(-165 -24) translate(165 24) translate(31.974 4.8)"/>
                    <path stroke="#FFFFFE" stroke-width=".643" d="M36.146 14.074L35.495 14.074 30.401 0.48 30.861 0.48 35.801 13.689 35.84 13.689 40.857 0.48 41.317 0.48z" transform="translate(-165 -24) translate(165 24) translate(31.974 4.8)"/>
                    <path fill="#FFFFFE" d="M44.323 13.978L44.323 0.384 52.232 0.384 52.232 0.768 44.744 0.768 44.744 6.739 51.791 6.739 51.791 7.123 44.744 7.123 44.744 13.594 52.538 13.594 52.538 13.978 44.323 13.978" transform="translate(-165 -24) translate(165 24) translate(31.974 4.8)"/>
                    <path stroke="#FFFFFE" stroke-width=".643" d="M44.285 14.074L44.285 0.48 52.194 0.48 52.194 0.864 44.706 0.864 44.706 6.835 51.753 6.835 51.753 7.219 44.706 7.219 44.706 13.689 52.5 13.689 52.5 14.074z" transform="translate(-165 -24) translate(165 24) translate(31.974 4.8)"/>
                    <path fill="#FFF" stroke="#FFF" stroke-width=".643" d="M68.73.864L68.653.864 62.659 13.978 62.314 13.978 56.34.864 56.282.864 56.282 13.978 55.861 13.978 55.861.384 56.607.384 62.506 13.363 68.404.384 69.151.384 69.151 13.978 68.73 13.978zM72.876.384L80.784.384 80.784.768 73.297.768 73.297 6.739 80.344 6.739 80.344 7.123 73.297 7.123 73.297 13.594 81.091 13.594 81.091 13.978 72.876 13.978z" transform="translate(-165 -24) translate(165 24) translate(31.974 4.8)"/>
                    <path fill="#FFFFFE" d="M92.418 10.407c0-.615-.124-1.14-.373-1.575-.25-.435-.565-.787-.948-1.056s-.804-.464-1.264-.585c-.46-.122-.907-.183-1.34-.183h-3.754v6.586h3.543c.587 0 1.136-.06 1.647-.183.51-.121.948-.31 1.312-.566.364-.256.65-.586.861-.989.21-.403.316-.886.316-1.45zm-.632-6.759c0-.55-.108-1.01-.325-1.382-.217-.371-.505-.666-.862-.883-.357-.218-.77-.375-1.235-.47-.466-.097-.955-.145-1.465-.145h-3.16v5.856h3.255c.46 0 .917-.057 1.37-.173.453-.115.858-.29 1.216-.528.357-.236.648-.544.871-.921.223-.378.335-.829.335-1.354zm1.054 6.701c0 .73-.138 1.328-.412 1.795-.275.468-.626.835-1.053 1.104-.428.269-.9.458-1.417.566-.518.11-1.012.164-1.485.164h-4.155V.384h3.696c.51 0 1.018.051 1.522.154.504.102.954.275 1.35.518.396.243.715.57.958.98.242.41.364.928.364 1.555 0 .486-.077.909-.23 1.267-.153.358-.361.665-.623.921-.261.257-.558.464-.89.624-.332.16-.67.279-1.015.355v.039c.345.038.715.131 1.11.278.396.148.764.362 1.102.643.338.282.619.64.842 1.076.224.435.336.953.336 1.555z" transform="translate(-165 -24) translate(165 24) translate(31.974 4.8)"/>
                    <path stroke="#FFFFFE" stroke-width=".643" d="M92.418 10.407c0-.615-.124-1.14-.373-1.575-.25-.435-.565-.787-.948-1.056s-.804-.464-1.264-.585c-.46-.122-.907-.183-1.34-.183h-3.754v6.586h3.543c.587 0 1.136-.06 1.647-.183.51-.121.948-.31 1.312-.566.364-.256.65-.586.861-.989.21-.403.316-.886.316-1.45zm-.632-6.759c0-.55-.108-1.01-.325-1.382-.217-.371-.505-.666-.862-.883-.357-.218-.77-.375-1.235-.47-.466-.097-.955-.145-1.465-.145h-3.16v5.856h3.255c.46 0 .917-.057 1.37-.173.453-.115.858-.29 1.216-.528.357-.236.648-.544.871-.921.223-.378.335-.829.335-1.354zm1.054 6.701c0 .73-.138 1.328-.412 1.795-.275.468-.626.835-1.053 1.104-.428.269-.9.458-1.417.566-.518.11-1.012.164-1.485.164h-4.155V.384h3.696c.51 0 1.018.051 1.522.154.504.102.954.275 1.35.518.396.243.715.57.958.98.242.41.364.928.364 1.555 0 .486-.077.909-.23 1.267-.153.358-.361.665-.623.921-.261.257-.558.464-.89.624-.332.16-.67.279-1.015.355v.039c.345.038.715.131 1.11.278.396.148.764.362 1.102.643.338.282.619.64.842 1.076.224.435.336.953.336 1.555z" transform="translate(-165 -24) translate(165 24) translate(31.974 4.8)"/>
                    <path fill="#FFFFFE" d="M100.624.653l-3.849 9.062h7.584L100.624.653zm5.477 13.325l-1.608-3.898h-7.871l-1.666 3.898h-.46l5.88-13.594h.536l5.649 13.594h-.46z" transform="translate(-165 -24) translate(165 24) translate(31.974 4.8)"/>
                    <path stroke="#FFFFFE" stroke-width=".643" d="M100.624.909l-3.849 8.806h7.584L100.624.91zm5.477 13.069l-1.608-3.898h-7.871l-1.666 3.898h-.46l5.88-13.594h.536l5.649 13.594h-.46z" transform="translate(-165 -24) translate(165 24) translate(31.974 4.8)"/>
                    <path fill="#FFFFFE" d="M117.477 13.853c-.875.339-1.766.509-2.672.509-1.022 0-1.953-.18-2.796-.538-.842-.358-1.57-.854-2.183-1.488-.613-.633-1.088-1.392-1.427-2.275-.338-.883-.507-1.843-.507-2.88s.169-1.997.507-2.88c.339-.883.814-1.642 1.427-2.275.613-.634 1.343-1.13 2.193-1.488.849-.358 1.777-.538 2.786-.538.843 0 1.663.144 2.46.432.799.288 1.479.727 2.04 1.315l-.268.307c-.268-.28-.571-.527-.91-.739-.338-.21-.695-.387-1.072-.528-.377-.14-.756-.243-1.14-.307-.382-.064-.753-.096-1.11-.096-.97 0-1.855.176-2.652.528-.798.352-1.481.835-2.05 1.45-.568.614-1.008 1.334-1.32 2.16-.314.825-.47 1.712-.47 2.659 0 .947.153 1.833.46 2.659.306.826.743 1.546 1.312 2.16.568.614 1.25 1.098 2.049 1.45.797.352 1.688.528 2.67.528.844 0 1.676-.164 2.5-.49.823-.326 1.503-.816 2.04-1.469l.306.288c-.574.691-1.3 1.207-2.173 1.546" transform="translate(-165 -24) translate(165 24) translate(31.974 4.8)"/>
                    <path stroke="#FFFFFE" stroke-width=".643" d="M117.477 13.853c-.875.339-1.766.509-2.672.509-1.022 0-1.953-.18-2.796-.538-.842-.358-1.57-.854-2.183-1.488-.613-.633-1.088-1.392-1.427-2.275-.338-.883-.507-1.843-.507-2.88s.169-1.997.507-2.88c.339-.883.814-1.642 1.427-2.275.613-.634 1.343-1.13 2.193-1.488.849-.358 1.777-.538 2.786-.538.843 0 1.663.144 2.46.432.799.288 1.479.727 2.04 1.315l-.268.307c-.268-.28-.571-.527-.91-.739-.338-.21-.695-.387-1.072-.528-.377-.14-.756-.243-1.14-.307-.382-.064-.753-.096-1.11-.096-.97 0-1.855.176-2.652.528-.798.352-1.481.835-2.05 1.45-.568.614-1.008 1.334-1.32 2.16-.314.825-.47 1.712-.47 2.659 0 .947.153 1.833.46 2.659.306.826.743 1.546 1.312 2.16.568.614 1.25 1.098 2.049 1.45.797.352 1.688.528 2.67.528.844 0 1.676-.164 2.5-.49.823-.326 1.503-.816 2.04-1.469l.306.288c-.574.691-1.3 1.207-2.173 1.546z" transform="translate(-165 -24) translate(165 24) translate(31.974 4.8)"/>
                    <path fill="#FFF" stroke="#FFF" stroke-width=".643" d="M130.764.384L131.378.384 124.494 7.183 131.378 13.978 130.784 13.978 123.958 7.183zM122.322 13.978L122.744 13.978 122.744.384 122.322.384z" transform="translate(-165 -24) translate(165 24) translate(31.974 4.8)"/>
                </g>
            </g>
        </g>
    </g>
</svg>
