<svg xmlns="http://www.w3.org/2000/svg" width="158" height="45" viewBox="0 0 158 45">
    <g fill="none" fill-rule="evenodd">
        <g fill="#FFF" fill-rule="nonzero">
            <g>
                <path d="M85.607 29.083c0 4.89-6.09 4.6-6.09 4.6h-6.089v-8.836h6.09c6.266-.042 6.09 4.236 6.09 4.236m-12.18-17.711h4.64c4.819.254 4.637 3.839 4.637 3.839 0 4.455-5.328 4.527-5.328 4.527h-3.949v-8.366zm11.053 10.104s4.168-1.775 4.13-6.483c0 0 .635-7.715-9.595-8.656h-11.35v32.344h13.01s10.871.032 10.871-9.126c0 0 .257-6.232-7.066-8.08M55.106 0h47.788v45H55.106V0zM30.5 29.083c0 4.89-6.089 4.6-6.089 4.6h-6.09v-8.836h6.09c6.267-.042 6.09 4.236 6.09 4.236M18.32 11.372h4.641c4.819.254 4.636 3.839 4.636 3.839 0 4.455-5.327 4.527-5.327 4.527h-3.95v-8.366zm11.054 10.104s4.168-1.775 4.13-6.483c0 0 .634-7.715-9.595-8.656H12.56v32.344h13.01s10.871.032 10.871-9.126c0 0 .256-6.232-7.066-8.08M0 0h47.788v45H0V0zm148.252 8.656v5.976s-5.837-3.585-12.287-3.657c0 0-12.034-.236-12.576 11.527 0 0-.435 10.817 12.43 11.433 0 0 5.399.65 12.722-4.016v6.188s-9.823 5.832-21.203 1.34c0 0-9.566-3.49-9.93-14.945 0 0-.398-11.782 12.36-15.693 0 0 3.407-1.303 9.53-.724 0 0 3.659.362 8.954 2.571M110.212 45H158V0h-47.788v45z" transform="translate(-80 -525) translate(80 525)"/>
            </g>
        </g>
    </g>
</svg>
