<svg xmlns="http://www.w3.org/2000/svg" width="371" height="30" viewBox="0 0 371 30">
    <g fill="none" fill-rule="evenodd">
        <g fill="#FFF">
            <g>
                <path d="M8.906 25.578c0 2.092.598 2.57 4.423 2.57v1.314H0v-1.314c2.63 0 3.527-.24 3.527-2.51V4.303c0-2.271-.897-2.51-3.527-2.51V.478h22.354l.12 7.948h-1.076c-.598-5.976-2.092-6.513-7.65-6.513H8.845v11.833h3.945c3.766 0 4.005-.598 4.304-3.586h1.076v8.665h-1.076c-.3-2.988-.538-3.526-4.304-3.526H8.846v10.28h.06v-.001zm16.317 3.884v-1.314c2.63 0 3.527-.24 3.527-2.51V4.303c0-2.271-.896-2.51-3.527-2.51V.478h12.433v1.315c-2.63 0-3.527.24-3.527 2.51v21.335c0 2.27.897 2.51 3.527 2.51v1.315H25.223zm40.645.478L46.024 5.378v20.14c0 2.331 1.613 2.69 4.363 2.69v1.315h-10.52v-1.315c2.75 0 4.244-.359 4.244-2.69V3.168c-1.255-1.315-2.152-1.375-4.243-1.375V.478h9.324L64.374 20.02V4.422c0-2.33-1.614-2.689-4.364-2.689V.478h10.58v1.315c-2.75 0-4.244.359-4.244 2.69V29.94h-.478zm14.166-.478h-10.46v-1.314c2.75 0 4.004-.359 4.9-2.75L83.92.18h2.63l10.16 25.399c.897 2.271 1.316 2.51 3.408 2.51v1.315H87.983v-1.315c3.706 0 4.065-.299 3.168-2.51l-2.988-7.71h-9.086l-2.69 7.47c-.836 2.272.48 2.75 3.707 2.75v1.374h-.06zm-.419-13.087h7.89L83.38 5.976l-3.766 10.399zm47.757 13.565L107.588 5.378v20.14c0 2.331 1.614 2.69 4.363 2.69v1.315h-10.28v-1.315c2.51 0 4.004-.359 4.004-2.69V3.228c-1.434-1.316-2.51-1.435-4.9-1.435V.478h9.921l15.182 19.542V4.422c0-2.33-1.614-2.689-4.363-2.689V.478h10.52v1.315c-2.75 0-4.244.359-4.244 2.69V29.94h-.419zM156.72.418h.718l.418 8.666-1.076.06c-.717-4.96-3.347-7.59-8.189-7.59-5.379 0-9.443 4.602-9.443 11.653 0 9.024 5.678 14.164 11.655 14.164 2.57 0 4.901-.717 7.172-3.167l.837.836c-1.853 2.63-5.499 4.84-10.4 4.84-7.292 0-14.704-5.497-14.704-14.7 0-8.905 6.754-15.18 14.943-15.18 3.885 0 5.918 1.673 6.993 1.673.478 0 .837-.418 1.076-1.255zm4.483 29.044v-1.314c2.63 0 3.527-.24 3.527-2.51V4.303c0-2.271-.897-2.51-3.527-2.51V.478h12.432v1.315c-2.63 0-3.526.24-3.526 2.51v21.335c0 2.27.897 2.51 3.526 2.51v1.315h-12.432zm24.148 0h-9.743v-1.314c2.152 0 3.287-.359 4.184-2.75L189.236.18h2.63l10.16 25.399c.897 2.271 1.316 2.51 3.408 2.51v1.315H193.3v-1.315c3.705 0 4.064-.299 3.167-2.51l-2.988-7.71h-9.085l-2.69 7.47c-.837 2.272.478 2.75 3.706 2.75v1.374h-.06zm-.419-13.087h7.89l-4.064-10.399-3.826 10.399zm22.534 13.087v-1.314c2.63 0 3.527-.24 3.527-2.51V4.303c0-2.271-.897-2.51-3.527-2.51V.478h12.372v1.315c-2.63 0-3.466.24-3.466 2.51v21.515c0 1.912.956 2.15 2.51 2.15h1.494c5.619 0 7.412-.836 8.966-7.23l1.076.12-.897 8.545h-22.055v.06zM267.716.478l.119 8.426h-1.076c-.597-6.215-2.092-6.991-7.65-6.991h-1.794v23.665c0 2.271.837 2.57 4.423 2.57v1.315h-14.225v-1.315c3.586 0 4.482-.358 4.482-2.57V1.912h-1.793c-5.558 0-7.053.777-7.65 6.992h-1.076l.12-8.426h26.12zm2.809 28.985v-1.315c2.63 0 3.526-.24 3.526-2.51V4.303c0-2.271-.896-2.51-3.526-2.51V.478h12.432v1.315c-2.63 0-3.527.24-3.527 2.51v21.335c0 2.27.897 2.51 3.527 2.51v1.315h-12.432zM320.375.478v1.315c-2.63 0-3.766.12-3.528 2.45l2.272 21.515c.24 2.21 1.076 2.45 3.706 2.45v1.315h-12.373v-1.315c2.57 0 3.467-.24 3.288-2.45l-2.332-22.591L302.263 30h-.358l-8.966-26.892-2.153 22.59c-.238 2.27 1.316 2.51 3.945 2.51v1.314h-9.683v-1.315c2.63 0 3.527-.418 3.706-2.51l2.272-21.514c.239-2.27-.897-2.45-3.527-2.45V.478h10.161l6.097 19.781L310.332.478h10.042zm23.13 18.347h-1.075c-.3-2.988-.538-3.527-4.304-3.527h-4.423v10.519c0 1.912.956 2.151 2.51 2.151h2.39c5.62 0 7.412-.837 8.967-7.23l1.076.118-1.017 8.547h-22.832v-1.315c2.63 0 3.526-.24 3.526-2.51V4.303c0-2.271-.896-2.51-3.526-2.51V.478h21.936l.12 7.231h-1.076c-.658-5.14-1.973-5.737-7.711-5.737h-4.303v11.773h4.423c3.765 0 4.004-.598 4.303-3.586h1.076v8.666h-.06zm23.072 4.66c0-2.629-1.673-3.943-4.542-5.557l-4.603-2.39c-3.467-1.853-5.499-3.885-5.499-7.53 0-4.542 3.885-8.008 8.966-8.008 3.467 0 5.26 1.673 6.276 1.673.657 0 .956-.418 1.255-1.255h.837l.418 8.128-1.076.06c-.597-3.945-3.407-6.993-7.352-6.993-2.988 0-4.96 1.793-4.96 4.303 0 2.75 2.091 3.885 4.422 5.14l3.945 2.091C368.37 15.18 371 17.211 371 21.096c0 5.14-4.423 8.785-9.922 8.785-3.885 0-5.798-1.853-6.814-1.853-.657 0-1.016.598-1.315 1.494h-.837l-.597-8.606 1.076-.119c.836 5.378 4.542 7.59 8.248 7.59 3.108-.06 5.738-1.434 5.738-4.9v-.001z" transform="translate(-80 -610) translate(80 610)"/>
            </g>
        </g>
    </g>
</svg>
