<svg xmlns="http://www.w3.org/2000/svg" width="80" height="80" viewBox="0 0 80 80">
    <g fill="none" fill-rule="evenodd">
        <g fill-rule="nonzero">
            <g>
                <path fill="#00A7E3" d="M79.717 80v-3.91c-3.994 1.483-7.775 2.778-11.36 3.91h11.36zM37.688 51.92c1.815 1.226 6.79 1.2 12.099-.067 6.596-1.574 11.631-4.502 11.209-6.546-.07-.333-.297-.634-.666-.884-1.83-1.232-6.798-1.203-12.095.063-5.308 1.267-9.818 3.493-10.967 5.423-.24.395-.327.784-.253 1.11.069.34.297.643.673.9" transform="translate(-80 -210) translate(80 210)"/>
                <path fill="#00A7E3" d="M53.944 71.672c-16.087 3.83-30.997 3.633-37.113-.489-1.491-1.01-2.395-2.22-2.69-3.616-.463-2.208.69-4.767 3.336-7.41.037-.028.093-.028.125 0 .035.027.042.105.015.139-1.306 1.728-1.813 3.352-1.503 4.811.245 1.184 1.03 2.23 2.321 3.092 5.614 3.793 19.619 3.904 34.844.288 10.716-2.564 20.32-6.553 26.438-10.97V0H0v80h7.334c-.564-.788-.955-1.632-1.147-2.534-.093-.454-.14-.918-.14-1.379 0-1.975.844-4.09 2.514-6.306.02-.028.082-.042.118-.006l.035.12c-.94 1.736-1.253 3.375-.94 4.879.455 2.158 2.17 3.908 4.87 5.226h41.382c.541-.123 1.078-.235 1.623-.365 8.77-2.095 17.058-4.99 24.068-8.4V61.48c-6.579 4.172-15.69 7.793-25.773 10.192M48.1 43.865c8.045-1.916 15.06-1.262 15.64 1.467.103.517-.017 1.091-.376 1.675-1.498 2.51-6.786 5.21-13.187 6.745-8.048 1.906-15.057 1.256-15.634-1.464-.567-2.725 5.498-6.505 13.557-8.423M28.5 51.998c.041-.022.096-.022.118.021.036.041.022.1-.008.129-2.078 1.78-3.008 3.462-2.712 4.88.155.75.657 1.416 1.481 1.974 3.707 2.5 13.543 2.528 23.923.055 13.102-3.131 23.05-9.11 22.157-13.36-.31-1.411-1.832-2.52-4.409-3.174-.048-.023-.08-.063-.068-.126.012-.042.062-.075.106-.07 4.23.69 6.712 2.16 7.15 4.258.203.933-.03 1.959-.673 3.034-2.698 4.527-12.225 9.41-23.706 12.147-11.48 2.729-22.048 2.645-26.307-.228-1.014-.692-1.623-1.502-1.82-2.453-.435-2.102 1.21-4.55 4.768-7.087" transform="translate(-80 -210) translate(80 210)"/>
                <path fill="#FFF" d="M79.718 76.089L79.718 71.233 79.717 71.234 79.717 76.09 79.718 76.089M54.025 80h14.331c3.586-1.131 7.367-2.427 11.36-3.91v-4.856c-7.01 3.41-15.297 6.306-24.067 8.4-.545.13-1.082.243-1.624.366M7.773 74.774c-.312-1.503 0-3.142.94-4.88l-.034-.118c-.036-.037-.098-.023-.118.004-1.67 2.217-2.514 4.332-2.514 6.307 0 .46.046.924.14 1.379.192.902.583 1.746 1.147 2.534h5.31c-2.7-1.318-4.415-3.068-4.87-5.226M25.552 61.537c4.26 2.873 14.827 2.958 26.308.229 11.48-2.737 21.008-7.62 23.705-12.148.644-1.075.876-2.1.673-3.033-.438-2.099-2.92-3.568-7.15-4.26-.044-.003-.094.03-.106.072-.012.062.02.102.068.125 2.577.654 4.1 1.763 4.41 3.175.893 4.249-9.056 10.227-22.158 13.36-10.38 2.473-20.216 2.445-23.923-.056-.824-.558-1.326-1.223-1.48-1.974-.297-1.417.633-3.1 2.711-4.88.03-.028.044-.087.008-.128-.022-.044-.076-.044-.118-.021-3.559 2.536-5.202 4.984-4.767 7.086.196.951.805 1.762 1.82 2.453M79.718 61.478L79.718 57.517 79.717 57.518 79.717 61.479 79.718 61.478" transform="translate(-80 -210) translate(80 210)"/>
                <path fill="#FFF" d="M18.435 68.2c-1.292-.863-2.076-1.908-2.32-3.092-.31-1.46.196-3.084 1.502-4.812.027-.033.02-.111-.015-.14-.032-.026-.088-.026-.125 0-2.645 2.645-3.799 5.203-3.335 7.411.294 1.397 1.198 2.607 2.689 3.617 6.116 4.122 21.026 4.318 37.113.488 10.083-2.398 19.194-6.02 25.772-10.193v-3.96c-6.117 4.416-15.72 8.405-26.437 10.97-15.225 3.614-29.23 3.504-34.844-.289M50.176 53.752c6.4-1.535 11.689-4.235 13.187-6.745.359-.584.48-1.158.375-1.675-.58-2.729-7.594-3.383-15.64-1.467-8.058 1.918-14.124 5.698-13.557 8.423.578 2.72 7.587 3.37 15.635 1.464m-12.908-3.843c1.15-1.93 5.659-4.156 10.967-5.423 5.297-1.266 10.265-1.295 12.095-.063.368.25.596.551.666.884.422 2.044-4.613 4.972-11.21 6.546-5.307 1.266-10.283 1.293-12.098.067-.376-.258-.604-.56-.673-.902-.074-.325.012-.713.253-1.11M32.849 17.029l1.015-3.816 1.056 3.816H32.85zm-.622-7.02l-3.588 10.647h3.218l.37-1.412h3.257l.393 1.412h3.266L35.56 10.01h-3.333zM9.959 20.656h3.29v-3.602h3.594v-2.493h-3.594V12.48h4.514V9.995H9.96v10.661zM69.75 12.48V9.995h-8.266v10.661h8.266v-2.48h-4.975v-1.614h4.122v-2.475h-4.122V12.48h4.975zm-45.776 2.111h-1.888v-2.135h1.888c.653 0 .977.358.977 1.07 0 .702-.323 1.065-.977 1.065m3.894-.99c0-2.318-1.317-3.592-3.704-3.592H19.05v10.647h3.036v-3.621h1.05l1.762 3.621h3.273s-1.848-3.675-2.13-4.19c1.118-.49 1.827-1.567 1.827-2.864m27.588 4.651c-1.432 0-1.905-1.484-1.905-2.923 0-1.43.473-2.928 1.905-2.928 1.273 0 1.559 1.184 1.62 1.572h2.998c-.265-2.674-1.776-4.212-4.531-4.217-3.084 0-5.084 2.219-5.084 5.573 0 3.153 1.839 5.577 5.084 5.577 2.928 0 4.573-2.281 4.573-4.425h-3.034c-.185.998-.584 1.771-1.626 1.771m-9.388-2.557h-.029l-2.917-5.687h-3.165v10.647h2.927v-5.821h.022l3.079 5.821h3.003V10.01h-2.92v5.687zM32.98 34.228h-4.414l4.414-5.39v5.39zm5.408 0V23.499h-5.172l-8.267 10.238v4.313h-7.862v-.027c3.41-2.215 7.926-3.765 7.926-8.695 0-4.09-2.984-6.046-7.385-6.046-4.863 0-7.955 3.032-7.669 8.32h4.89c-.06-2.35.647-3.957 2.733-3.957 1.207 0 2.18.61 2.18 2.348 0 1.417-1.516 2.18-2.44 2.788-2.322 1.504-4.91 2.97-6.431 5.211-.887 1.3-1.402 2.913-1.297 4.761h15.68v-3.83h7.706v3.83h5.408v-3.83h2.447v-4.695h-2.447z" transform="translate(-80 -210) translate(80 210)"/>
            </g>
        </g>
    </g>
</svg>
