<svg xmlns="http://www.w3.org/2000/svg" width="280" height="33" viewBox="0 0 280 33">
    <g fill="none" fill-rule="evenodd">
        <g fill-rule="nonzero">
            <g>
                <path fill="#FFF" d="M36.201 32.083L46.427 32.083 51.909.7 41.683.7 39.661 11.939 30.796 11.939 32.818.7 22.591.7 17.109 32.083 27.335 32.083 29.396 20.339 38.261 20.339zM57.703.661l-3.11 17.461c-.273 1.361-.39 2.684-.39 3.928 0 9.256 8.088 10.656 12.949 10.656 10.187 0 14.581-3.384 16.175-12.523L86.75.623H76.523l-2.917 16.41c-.933 5.134-1.594 7.817-5.404 7.817-2.489 0-3.694-1.322-3.694-4.044 0-1.05.155-2.334.466-3.928L67.93.622H57.703v.04zM140.797 32.083h10.226l1.44-8.089h4.82c8.905 0 13.843-4.822 13.843-13.61 0-6.184-4.277-9.723-11.781-9.723H146.28l-5.483 31.422zm15.942-15.827h-2.955l1.361-7.39h2.76c2.256 0 3.461 1.128 3.461 3.19 0 2.605-1.75 4.2-4.627 4.2zM190.996 0c-11.121 0-17.77 7.194-17.77 19.289 0 8.4 5.288 13.455 14.154 13.455 11.12 0 17.77-7.194 17.77-19.288C205.187 5.016 199.9 0 190.995 0zm-2.994 24.617c-2.644 0-4.2-1.906-4.2-5.095 0-1.205.117-2.255.35-3.46.778-4.123 2.1-7.895 6.26-7.895 2.645 0 4.2 1.905 4.2 5.094 0 1.206-.117 2.256-.35 3.461-.778 4.084-2.1 7.895-6.26 7.895zM240.728 32.083L250.954 32.083 254.998 9.1 262.697 9.1 264.174.7 238.006.7 236.528 9.1 244.694 9.1zM223.774 12.289c-3.227-1.011-4.549-1.439-4.549-2.956 0-1.01.661-2.216 2.605-2.216 1.439 0 2.644.816 3.111 2.022l9.02-2.45C232.913 2.256 229.102 0 222.532 0c-12.366 0-13.338 8.283-13.338 10.811 0 5.133 2.722 8.283 8.632 9.917 1.556.428 3.344.894 3.344 2.605 0 1.361-1.01 2.217-2.76 2.217-1.595 0-3.306-.933-3.889-2.567l-8.904 2.411c.972 4.667 5.366 7.312 12.248 7.312 5.25 0 14.037-1.4 14.037-10.89.039-4.744-2.644-7.855-8.127-9.527z" transform="translate(-80 -451) translate(80 451.128)"/>
                <path fill="#0DBE98" d="M11.393 32.083L16.914.7 0 .7 0 32.083zM268.568.7L263.086 32.083 280 32.083 280 .7z" transform="translate(-80 -451) translate(80 451.128)"/>
                <path fill="#FFF" d="M92.582.661L87.099 32.083 97.325 32.083 98.958 22.828 107.552 22.828 108.952 14.933 100.358 14.933 101.33 9.1 113.345 9.1 114.823.661zM119.411.661L113.929 32.083 124.155 32.083 125.749 22.828 134.381 22.828 135.781 14.933 127.188 14.933 128.16 9.1 140.175 9.1 141.653.661z" transform="translate(-80 -451) translate(80 451.128)"/>
            </g>
        </g>
    </g>
</svg>
