<svg xmlns="http://www.w3.org/2000/svg" width="16" height="15" viewBox="0 0 16 15">
    <g fill="none" fill-rule="evenodd">
        <g fill="#FFF" fill-rule="nonzero">
            <g>
                <g>
                    <g>
                        <g>
                            <path d="M15.385 6.77c-.134 0-.263-.044-.37-.124L8 1.385.985 6.646c-.272.204-.658.149-.862-.123-.204-.272-.149-.658.123-.861L7.631.123c.219-.164.52-.164.738 0l7.385 5.539c.212.158.298.435.214.686-.083.252-.319.421-.583.421z" transform="translate(-664 -1165) translate(200 1132) translate(464 24) translate(0 4) translate(0 5)"/>
                            <path d="M13.538 14.154H9.846c-.34 0-.615-.276-.615-.616V9.231H6.769v4.307c0 .34-.275.616-.615.616H2.462c-.34 0-.616-.276-.616-.616V4.923c0-.34.276-.615.616-.615.34 0 .615.275.615.615v8h2.461V8.615c0-.34.276-.615.616-.615h3.692c.34 0 .616.276.616.615v4.308h2.461v-8c0-.34.276-.615.615-.615.34 0 .616.275.616.615v8.615c0 .34-.276.616-.616.616z" transform="translate(-664 -1165) translate(200 1132) translate(464 24) translate(0 4) translate(0 5)"/>
                        </g>
                    </g>
                </g>
            </g>
        </g>
    </g>
</svg>
