<svg xmlns="http://www.w3.org/2000/svg" width="16" height="16" viewBox="0 0 16 16">
    <g fill="none" fill-rule="evenodd">
        <g fill="#FFF" fill-rule="nonzero">
            <g>
                <g>
                    <path d="M12.183 13.217c0 .766-.633 1.383-1.383 1.383h-8c-.767 0-1.383-.617-1.383-1.383v-8c0-.767.616-1.384 1.383-1.384h4.467l1.316-1.316h-5.8c-1.483 0-2.7 1.2-2.7 2.7v8c0 1.5 1.217 2.7 2.7 2.7h8c1.484 0 2.7-1.2 2.7-2.7V7.433L12.167 8.75v4.467h.016z" transform="translate(-180 -635) translate(176 631) translate(4 4)"/>
                    <path d="M15.483 1.483l-.966-.966c-.584-.584-1.534-.584-2.1 0L5.483 7.45c-.283.283-.516.617-.666.983l-1.55 3.617c-.084.2-.034.433.116.583.1.1.234.15.367.15.067 0 .133-.016.2-.05l3.617-1.55c.366-.15.7-.383.983-.666l6.933-6.934c.584-.566.584-1.516 0-2.1zM7.15 10.217l-1.767.75-.366-.367.75-1.767c.033-.083.083-.166.133-.25l1.483 1.484c-.05.066-.133.116-.233.15z" transform="translate(-180 -635) translate(176 631) translate(4 4)"/>
                </g>
            </g>
        </g>
    </g>
</svg>
