<svg xmlns="http://www.w3.org/2000/svg" width="24" height="24" viewBox="0 0 24 24">
    <g fill="none" fill-rule="evenodd">
        <g fill="#B9BECA" fill-rule="nonzero">
            <g>
                <g>
                    <path d="M14.061 1.954C12.867.756 11.277.096 9.585.096c-1.684 0-3.268.655-4.461 1.844-2.322 2.315-2.464 6-.424 8.484L.277 14.847c-.242.242-.242.634 0 .875.121.121.28.182.438.182.159 0 .317-.06.438-.182L5.575 11.3c1.127.93 2.53 1.435 4.01 1.435 1.685 0 3.269-.655 4.46-1.844C15.24 9.7 15.9 8.114 15.905 6.426c.002-1.689-.652-3.277-1.844-4.472zm-.89 8.06c-.958.956-2.232 1.483-3.586 1.483-1.36 0-2.639-.53-3.599-1.495-1.977-1.984-1.972-5.208.012-7.185.96-.956 2.233-1.483 3.587-1.483 1.36 0 2.64.53 3.6 1.494.957.96 1.484 2.238 1.481 3.595-.003 1.358-.533 2.633-1.495 3.591z" transform="translate(-173 -721) translate(173 721) matrix(-1 0 0 1 20 4)"/>
                </g>
            </g>
        </g>
    </g>
</svg>
