<?xml version="1.0" encoding="UTF-8"?>
<svg width="24px" height="24px" viewBox="0 0 24 24" version="1.1" xmlns="http://www.w3.org/2000/svg" xmlns:xlink="http://www.w3.org/1999/xlink">
    <title>icon_home</title>
    <g id="icon_home" stroke="none" stroke-width="1" fill="none" fill-rule="evenodd">
        <g id="noun_broadcast_663017" transform="translate(3.000000, 2.000000)" fill="#FFFFFF" fill-rule="nonzero">
            <g id="Group">
                <path d="M5.38531646,10.0577215 C5.51493671,10.0577215 5.64455696,10.0083544 5.74329114,9.90936709 C5.94101266,9.71164557 5.94101266,9.39113924 5.74329114,9.19341772 C4.97822785,8.42835443 4.55696203,7.41113924 4.55696203,6.32911392 C4.55696203,5.24708861 4.97822785,4.22987342 5.74329114,3.46481013 C5.94101266,3.26708861 5.94101266,2.94658228 5.74329114,2.74886076 C5.54582278,2.55113924 5.22481013,2.55113924 5.02734177,2.74886076 C4.07088608,3.70506329 3.5443038,4.97670886 3.5443038,6.32911392 C3.5443038,7.68151899 4.07088608,8.95316456 5.02734177,9.90936709 C5.12607595,10.0083544 5.2556962,10.0577215 5.38531646,10.0577215 Z" id="Path"></path>
                <path d="M3.23721519,11.6994937 C1.80278481,10.2653165 1.01265823,8.35797468 1.01265823,6.32911392 C1.01265823,4.30050633 1.80278481,2.39341772 3.23721519,0.958734177 C3.43493671,0.761012658 3.43493671,0.440506329 3.23721519,0.24278481 C3.03949367,0.0450632911 2.71873418,0.0450632911 2.52126582,0.24278481 C0.895443038,1.86860759 0,4.03012658 0,6.32911392 C0,8.62860759 0.895443038,10.7898734 2.52101266,12.415443 C2.62,12.5144304 2.74936709,12.5637975 2.87898734,12.5637975 C3.00860759,12.5637975 3.13822785,12.5144304 3.23721519,12.415443 C3.43493671,12.2177215 3.43493671,11.896962 3.23721519,11.6994937 Z" id="Path"></path>
                <path d="M11.4716456,9.90936709 C11.5706329,10.0083544 11.7,10.0577215 11.8296203,10.0577215 C11.9592405,10.0577215 12.0886076,10.0083544 12.1875949,9.90962025 C13.1443038,8.95316456 13.6708861,7.68177215 13.6708861,6.32911392 C13.6708861,4.9764557 13.1443038,3.70506329 12.1878481,2.74860759 C11.9901266,2.55113924 11.6696203,2.55088608 11.4718987,2.74860759 C11.2741772,2.94632911 11.2741772,3.26683544 11.4718987,3.46481013 C12.236962,4.22987342 12.6582278,5.24708861 12.6582278,6.32911392 C12.6582278,7.41113924 12.236962,8.42835443 11.4716456,9.19316456 C11.2739241,9.39113924 11.2739241,9.71164557 11.4716456,9.90936709 Z" id="Path"></path>
                <path d="M14.6939241,0.242531646 C14.4962025,0.0448101266 14.1756962,0.0448101266 13.9779747,0.242531646 C13.7802532,0.440253165 13.7802532,0.760759494 13.9779747,0.958481013 C15.4124051,2.39316456 16.2025316,4.30050633 16.2025316,6.32911392 C16.2025316,8.35797468 15.4124051,10.2650633 13.9779747,11.6994937 C13.7802532,11.896962 13.7802532,12.2177215 13.9779747,12.415443 C14.076962,12.5144304 14.2063291,12.5637975 14.3359494,12.5637975 C14.4655696,12.5637975 14.5949367,12.5144304 14.6939241,12.415443 C16.3197468,10.7898734 17.2151899,8.62835443 17.2151899,6.32911392 C17.2151899,4.02987342 16.3197468,1.86835443 14.6939241,0.242531646 Z" id="Path"></path>
                <path d="M9.11392405,9.24734177 L9.11392405,7.75974684 C9.7035443,7.55088608 10.1265823,6.99012658 10.1265823,6.32911392 C10.1265823,5.49012658 9.44658228,4.81012658 8.60759494,4.81012658 C7.76860759,4.81012658 7.08860759,5.49012658 7.08860759,6.32911392 C7.08860759,6.99012658 7.51164557,7.55113924 8.10126582,7.75974684 L8.10126582,9.24734177 L3.09139241,19.2670886 C2.99139241,19.4673418 3.03443038,19.7093671 3.19746835,19.8627848 C3.29392405,19.9531646 3.41848101,20 3.5443038,20 C3.63139241,20 3.71924051,19.9774684 3.79848101,19.9313924 L8.60759494,17.1392405 L13.4167089,19.9316456 C13.4959494,19.9774684 13.5835443,20 13.6706329,20 C13.7964557,20 13.9212658,19.9531646 14.0174684,19.8627848 C14.1807595,19.7096203 14.2237975,19.4673418 14.1237975,19.2670886 L9.11392405,9.24734177 Z M10.7268354,14.7377215 L9.11392405,15.6741772 L9.11392405,11.5121519 L10.7268354,14.7377215 Z M8.10126582,15.6741772 L6.48835443,14.7377215 L8.10126582,11.5121519 L8.10126582,15.6741772 Z M4.75443038,18.2055696 L6.03468354,15.6453165 L7.59924051,16.5539241 L4.75443038,18.2055696 Z M9.61594937,16.5536709 L11.1805063,15.6450633 L12.4607595,18.2055696 L9.61594937,16.5536709 Z" id="Shape"></path>
            </g>
        </g>
    </g>
</svg>