<svg xmlns="http://www.w3.org/2000/svg" width="96" height="14" viewBox="0 0 96 14">
    <g fill="none" fill-rule="evenodd">
        <g>
            <g>
                <g>
                    <g>
                        <g>
                            <g>
                                <g>
                                    <path fill="#FFF" d="M12.427 0c.829 0 1.5.672 1.5 1.5v11c0 .828-.671 1.5-1.5 1.5H1.5C.672 14 0 13.328 0 12.5v-11C0 .672.672 0 1.5 0zM3.971 1.69h-.907l-.033.004c-.093.024-.132.146-.057.219L8.16 7l-5.186 5.086-.02.026c-.05.082.006.197.11.197h.891l.03-.004.028-.01.024-.015 5.246-5.187.02-.027c.03-.05.022-.115-.02-.157L4.062 1.728l-.09-.038zm6.687 0h-.63c-.071 0-.13.058-.13.13v10.36c0 .072.059.13.13.13h.63c.072 0 .13-.058.13-.13V1.82c0-.072-.058-.13-.13-.13z" transform="translate(-172 -8930) translate(0 8154) translate(0 480) translate(0 280) translate(172 7) translate(0 9)"/>
                                </g>
                                <g>
                                    <path fill="#FFFFFE" d="M7.487 8.154L7.487 0.504 7.443 0.504 3.955 8.154 3.755 8.154 0.279 0.504 0.245 0.504 0.245 8.154 0 8.154 0 0.224 0.435 0.224 3.866 7.795 7.298 0.224 7.733 0.224 7.733 8.154 7.487 8.154" transform="translate(-172 -8930) translate(0 8154) translate(0 480) translate(0 280) translate(172 7) translate(0 9) translate(18.603 2.8)"/>
                                    <path stroke="#FFFFFE" stroke-width=".5" d="M7.487 8.21L7.487 0.56 7.443 0.56 3.955 8.21 3.755 8.21 0.279 0.56 0.245 0.56 0.245 8.21 0 8.21 0 0.28 0.435 0.28 3.866 7.851 7.298 0.28 7.733 0.28 7.733 8.21z" transform="translate(-172 -8930) translate(0 8154) translate(0 480) translate(0 280) translate(172 7) translate(0 9) translate(18.603 2.8)"/>
                                    <path fill="#FFFFFE" d="M16.997 4.189c0-.553-.093-1.07-.279-1.551-.185-.482-.447-.902-.785-1.26-.338-.359-.741-.64-1.209-.846-.468-.205-.98-.308-1.538-.308-.557 0-1.07.103-1.537.308-.468.206-.871.487-1.21.846-.337.358-.599.778-.785 1.26-.185.481-.278.998-.278 1.55 0 .554.09 1.07.273 1.552.182.482.44.902.774 1.26s.736.64 1.204.846c.467.205.987.308 1.56.308.571 0 1.091-.103 1.56-.308.467-.205.868-.488 1.203-.846.334-.358.592-.778.774-1.26.182-.482.273-.998.273-1.551zm.245 0c0 .612-.102 1.174-.306 1.686-.205.511-.487.952-.847 1.321-.36.37-.79.66-1.287.868-.498.209-1.036.314-1.616.314-.579 0-1.118-.105-1.615-.314-.498-.209-.927-.498-1.287-.868-.36-.37-.643-.81-.847-1.321-.204-.512-.306-1.074-.306-1.686 0-.612.102-1.174.306-1.686.204-.511.487-.952.847-1.321.36-.37.787-.66 1.281-.868C12.06.104 12.6 0 13.186 0s1.128.105 1.622.314c.493.209.92.498 1.28.868.361.37.643.81.848 1.321.204.512.306 1.074.306 1.686z" transform="translate(-172 -8930) translate(0 8154) translate(0 480) translate(0 280) translate(172 7) translate(0 9) translate(18.603 2.8)"/>
                                    <path stroke="#FFFFFE" stroke-width=".5" d="M17.058 4.189c0-.553-.093-1.07-.278-1.551-.186-.482-.448-.902-.786-1.26-.338-.359-.74-.64-1.209-.846-.468-.205-.98-.308-1.537-.308-.557 0-1.07.103-1.538.308-.468.206-.87.487-1.209.846-.338.358-.6.778-.785 1.26-.186.481-.279.998-.279 1.55 0 .554.091 1.07.273 1.552.182.482.44.902.775 1.26.334.358.735.64 1.203.846.468.205.988.308 1.56.308.572 0 1.092-.103 1.56-.308.468-.205.869-.488 1.203-.846.334-.358.592-.778.774-1.26.182-.482.273-.998.273-1.551zm.245 0c0 .612-.102 1.174-.306 1.686-.204.511-.487.952-.847 1.321-.36.37-.789.66-1.287.868-.497.209-1.036.314-1.615.314-.58 0-1.118-.105-1.616-.314-.498-.209-.926-.498-1.287-.868-.36-.37-.642-.81-.846-1.321-.205-.512-.307-1.074-.307-1.686 0-.612.102-1.174.307-1.686.204-.511.486-.952.846-1.321.36-.37.787-.66 1.282-.868C12.12.104 12.66 0 13.247 0c.587 0 1.128.105 1.622.314.494.209.92.498 1.281.868.36.37.643.81.847 1.321.204.512.306 1.074.306 1.686z" transform="translate(-172 -8930) translate(0 8154) translate(0 480) translate(0 280) translate(172 7) translate(0 9) translate(18.603 2.8)"/>
                                    <path fill="#FFFFFE" d="M20.98 8.154L20.601 8.154 17.638 0.224 17.905 0.224 20.78 7.93 20.802 7.93 23.721 0.224 23.989 0.224 20.98 8.154" transform="translate(-172 -8930) translate(0 8154) translate(0 480) translate(0 280) translate(172 7) translate(0 9) translate(18.603 2.8)"/>
                                    <path stroke="#FFFFFE" stroke-width=".5" d="M21.03 8.21L20.652 8.21 17.688 0.28 17.955 0.28 20.83 7.985 20.852 7.985 23.771 0.28 24.039 0.28z" transform="translate(-172 -8930) translate(0 8154) translate(0 480) translate(0 280) translate(172 7) translate(0 9) translate(18.603 2.8)"/>
                                    <path fill="#FFFFFE" d="M25.788 8.154L25.788 0.224 30.389 0.224 30.389 0.448 26.033 0.448 26.033 3.931 30.133 3.931 30.133 4.155 26.033 4.155 26.033 7.93 30.568 7.93 30.568 8.154 25.788 8.154" transform="translate(-172 -8930) translate(0 8154) translate(0 480) translate(0 280) translate(172 7) translate(0 9) translate(18.603 2.8)"/>
                                    <path stroke="#FFFFFE" stroke-width=".5" d="M25.766 8.21L25.766 0.28 30.367 0.28 30.367 0.504 26.011 0.504 26.011 3.987 30.111 3.987 30.111 4.211 26.011 4.211 26.011 7.985 30.546 7.985 30.546 8.21z" transform="translate(-172 -8930) translate(0 8154) translate(0 480) translate(0 280) translate(172 7) translate(0 9) translate(18.603 2.8)"/>
                                    <path fill="#FFF" stroke="#FFF" stroke-width=".5" d="M39.988.504L39.944.504 36.456 8.154 36.256 8.154 32.779.504 32.746.504 32.746 8.154 32.501 8.154 32.501.224 32.935.224 36.367 7.795 39.799.224 40.233.224 40.233 8.154 39.988 8.154zM42.4.224L47.002.224 47.002.448 42.645.448 42.645 3.931 46.746 3.931 46.746 4.155 42.645 4.155 42.645 7.93 47.18 7.93 47.18 8.154 42.4 8.154z" transform="translate(-172 -8930) translate(0 8154) translate(0 480) translate(0 280) translate(172 7) translate(0 9) translate(18.603 2.8)"/>
                                    <path fill="#FFFFFE" d="M53.77 6.07c0-.358-.072-.664-.217-.918-.145-.254-.328-.46-.551-.616-.223-.157-.468-.27-.736-.341-.267-.071-.527-.107-.78-.107h-2.183V7.93h2.061c.342 0 .661-.036.958-.107.297-.07.552-.18.763-.33.212-.15.38-.342.502-.577.122-.235.184-.517.184-.845zm-.367-3.942c0-.32-.063-.59-.19-.806-.126-.217-.293-.388-.5-.515-.209-.127-.449-.219-.72-.275-.27-.056-.555-.084-.852-.084h-1.838v3.416h1.894c.267 0 .533-.033.796-.1.264-.068.5-.17.708-.309.208-.138.377-.317.507-.537.13-.22.195-.484.195-.79zm.613 3.909c0 .425-.08.775-.24 1.047-.16.273-.364.487-.613.644-.249.157-.523.267-.824.33-.301.064-.589.096-.864.096h-2.417V.224h2.15c.297 0 .592.03.886.09.293.06.555.16.785.302.23.142.416.332.557.571.141.24.212.542.212.908 0 .283-.044.53-.134.739-.089.209-.21.388-.362.537-.152.15-.325.271-.518.364-.193.094-.39.163-.59.207v.023c.2.022.416.077.646.162.23.086.444.211.64.375.197.165.36.374.49.628s.196.556.196.907z" transform="translate(-172 -8930) translate(0 8154) translate(0 480) translate(0 280) translate(172 7) translate(0 9) translate(18.603 2.8)"/>
                                    <path stroke="#FFFFFE" stroke-width=".5" d="M53.77 6.07c0-.358-.072-.664-.217-.918-.145-.254-.328-.46-.551-.616-.223-.157-.468-.27-.736-.341-.267-.071-.527-.107-.78-.107h-2.183V7.93h2.061c.342 0 .661-.036.958-.107.297-.07.552-.18.763-.33.212-.15.38-.342.502-.577.122-.235.184-.517.184-.845zm-.367-3.942c0-.32-.063-.59-.19-.806-.126-.217-.293-.388-.5-.515-.209-.127-.449-.219-.72-.275-.27-.056-.555-.084-.852-.084h-1.838v3.416h1.894c.267 0 .533-.033.796-.1.264-.068.5-.17.708-.309.208-.138.377-.317.507-.537.13-.22.195-.484.195-.79zm.613 3.909c0 .425-.08.775-.24 1.047-.16.273-.364.487-.613.644-.249.157-.523.267-.824.33-.301.064-.589.096-.864.096h-2.417V.224h2.15c.297 0 .592.03.886.09.293.06.555.16.785.302.23.142.416.332.557.571.141.24.212.542.212.908 0 .283-.044.53-.134.739-.089.209-.21.388-.362.537-.152.15-.325.271-.518.364-.193.094-.39.163-.59.207v.023c.2.022.416.077.646.162.23.086.444.211.64.375.197.165.36.374.49.628s.196.556.196.907z" transform="translate(-172 -8930) translate(0 8154) translate(0 480) translate(0 280) translate(172 7) translate(0 9) translate(18.603 2.8)"/>
                                    <path fill="#FFFFFE" d="M58.545.38l-2.24 5.287h4.413L58.545.381zm3.187 7.774l-.936-2.274h-4.58l-.969 2.274h-.267L58.4.224h.312L62 8.154h-.267z" transform="translate(-172 -8930) translate(0 8154) translate(0 480) translate(0 280) translate(172 7) translate(0 9) translate(18.603 2.8)"/>
                                    <path stroke="#FFFFFE" stroke-width=".5" d="M58.545.53l-2.24 5.137h4.413L58.545.53zm3.187 7.624l-.936-2.274h-4.58l-.969 2.274h-.267L58.4.224h.312L62 8.154h-.267z" transform="translate(-172 -8930) translate(0 8154) translate(0 480) translate(0 280) translate(172 7) translate(0 9) translate(18.603 2.8)"/>
                                    <path fill="#FFFFFE" d="M68.35 8.08c-.509.199-1.027.298-1.554.298-.595 0-1.137-.105-1.627-.314-.49-.209-.914-.498-1.27-.868-.357-.37-.634-.812-.83-1.327-.197-.515-.296-1.075-.296-1.68s.099-1.165.296-1.68c.196-.515.473-.958.83-1.327.356-.37.781-.66 1.276-.868.493-.21 1.034-.314 1.62-.314.49 0 .968.084 1.432.252.465.168.86.424 1.187.767l-.156.18c-.156-.165-.333-.308-.53-.432-.196-.123-.404-.225-.623-.308-.22-.082-.44-.141-.663-.179-.223-.037-.438-.056-.646-.056-.565 0-1.08.103-1.544.308-.464.206-.861.487-1.192.846-.33.358-.587.778-.768 1.26-.182.481-.274.998-.274 1.55 0 .554.09 1.07.268 1.552.178.482.433.902.763 1.26s.728.64 1.192.846c.464.205.983.308 1.555.308.49 0 .974-.096 1.454-.286.479-.19.874-.476 1.186-.857l.179.168c-.335.403-.756.704-1.265.902" transform="translate(-172 -8930) translate(0 8154) translate(0 480) translate(0 280) translate(172 7) translate(0 9) translate(18.603 2.8)"/>
                                    <path stroke="#FFFFFE" stroke-width=".5" d="M68.35 8.08c-.509.199-1.027.298-1.554.298-.595 0-1.137-.105-1.627-.314-.49-.209-.914-.498-1.27-.868-.357-.37-.634-.812-.83-1.327-.197-.515-.296-1.075-.296-1.68s.099-1.165.296-1.68c.196-.515.473-.958.83-1.327.356-.37.781-.66 1.276-.868.493-.21 1.034-.314 1.62-.314.49 0 .968.084 1.432.252.465.168.86.424 1.187.767l-.156.18c-.156-.165-.333-.308-.53-.432-.196-.123-.404-.225-.623-.308-.22-.082-.44-.141-.663-.179-.223-.037-.438-.056-.646-.056-.565 0-1.08.103-1.544.308-.464.206-.861.487-1.192.846-.33.358-.587.778-.768 1.26-.182.481-.274.998-.274 1.55 0 .554.09 1.07.268 1.552.178.482.433.902.763 1.26s.728.64 1.192.846c.464.205.983.308 1.555.308.49 0 .974-.096 1.454-.286.479-.19.874-.476 1.186-.857l.179.168c-.335.403-.756.704-1.265.902z" transform="translate(-172 -8930) translate(0 8154) translate(0 480) translate(0 280) translate(172 7) translate(0 9) translate(18.603 2.8)"/>
                                    <path fill="#FFF" stroke="#FFF" stroke-width=".5" d="M76.081.224L76.438.224 72.433 4.19 76.438 8.154 76.092 8.154 72.121 4.19zM71.169 8.154L71.414 8.154 71.414.224 71.169.224z" transform="translate(-172 -8930) translate(0 8154) translate(0 480) translate(0 280) translate(172 7) translate(0 9) translate(18.603 2.8)"/>
                                </g>
                            </g>
                        </g>
                    </g>
                </g>
            </g>
        </g>
    </g>
</svg>
