<svg xmlns="http://www.w3.org/2000/svg" width="308" height="80" viewBox="0 0 308 80">
    <g fill="none" fill-rule="evenodd">
        <g fill="#FFF" fill-rule="nonzero">
            <g>
                <path d="M307.249 41.871v11.076c-.05 2.059.139 4.116.56 6.132v.313c-4.548 1.395-9.268 2.153-14.025 2.251-16.342 0-26.927-9.499-26.927-24.089 0-14.894 10.02-24.341 25.486-24.341 4.696 0 9.459.874 12.463 2.251v9.637h-.314c-3.004-2.816-7.453-4.446-12.272-4.446-9.768 0-15.467 6.009-15.467 16.586 0 10.923 6.18 17.017 16.969 17.017 1.438.014 2.872-.132 4.278-.437v-11.55c-2.963-.065-5.923.187-8.832.75h-.313v-8.91h.313c3.075.569 6.2.82 9.326.75H308v.314c-.475 1.253-.751 3.818-.751 6.696zM243.6 54.011h-5.323V40.432h5.323c5.01 0 7.7.314 10.205.874h.314v-9.133h-.304c-2.505.56-5.195.874-10.205.874h-5.324V20.845h5.448c5.76 0 10.08.627 12.776 2.005h.252v-8.887h-29.945v.314c1.127 1.938 1.878 5.88 1.878 9.945V50.63c0 4.07-.751 8.013-1.878 9.974v.314h31.56v-9.5h-.313c-3.57 1.777-8.45 2.594-14.464 2.594zm-39.55-20.399c-6.074-2.375-9.459-3.567-9.459-7.57 0-3.634 2.634-5.572 7.263-5.572 3.883 0 7.206 1.378 10.709 4.275h.313v-9.547c-3.403-1.362-7.042-2.041-10.708-2-10.642 0-17.159 5.444-17.159 14.33 0 8.511 6.075 11.2 12.715 13.773 6.074 2.375 9.454 3.567 9.454 7.571 0 3.633-2.69 5.51-7.577 5.51-5.01 0-8.831-1.691-13.337-5.757h-.314v10.268c4.184 1.836 8.706 2.775 13.276 2.755 10.832 0 17.534-5.443 17.534-14.248-.02-8.535-6.075-11.223-12.71-13.788zm-42.735 20.423h-4.278V24.222c0-4.065.751-8.007 1.878-9.945v-.314h-13.318v.314c1.126 1.938 1.877 5.88 1.877 9.945V50.63c0 4.07-.751 8.013-1.877 9.974v.314h30.495v-9.599h-.313c-3.632 1.814-8.47 2.693-14.464 2.693v.024zM13.879 69.342v.067h1.502c1.397.043 2.348-.755 2.348-2.128.027-.54-.174-1.065-.553-1.45-.38-.385-.903-.593-1.443-.573-.618 0-1.236-.033-1.854 0v.066c.14.245.205.526.185.808v2.374c.018.29-.046.58-.185.836zm.998-3.434c.271 0 .542 0 .813.024.346.012.672.166.9.426.23.26.34.602.307.947.036.387-.103.77-.379 1.046-.275.275-.659.414-1.047.379h-.57l-.024-2.822zm5.471 0v-.066c-.395-.076-.789-.147-1.184-.209v.066c.135.261.198.553.186.846v2.375c.018.274-.046.547-.186.783v.114c.395.062.79.133 1.184.21v-.067c-.133-.264-.196-.556-.185-.85V66.71c-.021-.279.043-.557.185-.798v-.005zm3.745 1.402c.392.12.736.362.984.688h.057v-.855c-.249-.229-.55-.392-.879-.475-1.388-.399-2.476.428-2.476 1.824-.07 1.13.698 2.14 1.806 2.375.507.168 1.06.143 1.55-.071v-.784h-.053c-.4.257-.89.333-1.35.209-.697-.21-1.159-.87-1.117-1.596 0-1.04.604-1.562 1.478-1.31v-.005zm4.378 1.24c.35.078.677.24.95.474h.048v-.86c-1.155-.299-2.315-.622-3.474-.95v.86l.057.033c.315-.08.647-.06.95.057l.314.086v2.607c.02.268-.044.536-.185.765v.067l1.183.318v-.067c-.13-.269-.194-.565-.185-.864v-2.608l.342.081zm3.327.237v-.067c-.396-.089-.79-.184-1.183-.285v.067c.133.266.196.562.185.86v1.937c-.058.877.558 1.656 1.426 1.8 1.207.27 2.034-.332 2.034-1.425v-1.567c-.017-.272.048-.543.186-.779v-.066c-.374-.067-.75-.138-1.127-.214v.066c.132.264.195.556.186.85v1.649c0 .664-.366.95-1.103.769-.504-.078-.856-.54-.799-1.045v-1.786c-.016-.266.049-.53.186-.76l.01-.004zm4.154 4.83v.062c.377.05.753.093 1.127.128v-.067c-.133-.256-.197-.542-.186-.83v-1.986c.371.56.742 1.111 1.113 1.657.006.01.017.017.028.017.012 0 .023-.007.029-.017.37-.498.736-1.006 1.107-1.524v1.976c.016.284-.048.567-.185.817v.061h1.183v-.061c-.134-.25-.198-.53-.185-.813V70.64c-.013-.286.051-.57.185-.822v-.062h-.95c-.366.528-.732 1.04-1.103 1.549-.368-.545-.734-1.1-1.098-1.667-.352-.033-.699-.071-1.046-.119v.067c.132.26.196.549.186.84V72.8c.014.286-.057.57-.205.817zm43.9-1.202c1.036-.033 1.616-.589 1.616-1.448 0-.86-.57-1.278-1.611-1.245H78.14v.067c.137.253.203.539.19.826v2.399c.015.281-.051.561-.19.807v.062c.393.019.787.028 1.183.028v-.066c-.135-.25-.199-.533-.185-.817v-.584l.713-.029zm-.713-2.009h.69c.512 0 .807.228.807.675 0 .446-.257.655-.746.67h-.751v-1.345zm5.642 2.907c.451-.086.898-.18 1.35-.28v-.067c-.245-.214-.44-.478-.575-.774-.519-.974-1.037-1.952-1.555-2.945l-.214.038c-.475 1.16-.95 2.304-1.426 3.444-.13.351-.312.681-.541.978v.067c.404-.043.808-.09 1.212-.148v-.061c-.125-.27-.117-.583.023-.846.561-.08 1.122-.176 1.688-.28.144.254.164.56.052.831l-.014.043zm-1.46-1.311l.528-1.306.57 1.12-1.097.186zm5.229-3.106c.458-.128.95-.054 1.35.204h.057v-.803c-.488-.215-1.04-.239-1.545-.066-1.105.27-1.864 1.282-1.81 2.417 0 1.382 1.073 2.17 2.476 1.762.327-.083.63-.246.879-.474v-.855h-.062c-.246.326-.589.567-.979.688-.87.252-1.483-.299-1.483-1.31-.049-.724.424-1.38 1.127-1.563h-.01zm4.753-1.207c.304-.113.636-.132.95-.052l.053-.028v-.86c-1.155.3-2.315.618-3.47.95v.86h.053c.273-.234.6-.397.95-.475l.319-.086v2.608c.008.298-.055.595-.186.864v.067l1.184-.323v-.062c-.143-.23-.21-.5-.19-.77v-2.607l.337-.086zm4.306 2.56c.891-.13 1.535-.92 1.483-1.819V66.57c-.01-.293.054-.584.186-.846v-.066c-.376.061-.751.128-1.127.204v.066c.138.236.203.507.186.78v1.823c.03.232-.036.466-.18.65-.145.184-.358.302-.59.329-.737.156-1.132-.11-1.132-.78V67.11c-.01-.297.054-.593.186-.86v-.066l-1.184.28v.067c.143.23.21.499.19.769v1.643c-.004 1.055.79 1.558 1.978 1.306h.004zm3.156-.717v.067c.374-.048.75-.086 1.127-.114v-.067c-.136-.243-.2-.52-.185-.798v-1.985c.37.475.741.988 1.112 1.491h.057c.37-.532.741-1.063 1.112-1.581v1.976c.014.284-.052.567-.19.817v.066h1.183v-.062c-.133-.252-.197-.536-.185-.821v-2.399c-.014-.28.05-.56.185-.807v-.067h-.95c-.366.523-.732 1.06-1.098 1.6-.366-.507-.737-1.01-1.103-1.51-.347.029-.699.067-1.046.11v.066c.137.241.201.517.186.793v2.375c.007.297-.063.59-.205.85zm-48.857 4.802c-.364-.589-.73-1.186-1.098-1.79-.375-.077-.746-.157-1.116-.243v.067c.13.265.194.559.185.855v2.398c.018.27-.047.54-.185.774v.072c.37.085.746.166 1.121.242v-.067c-.131-.263-.195-.556-.185-.85v-1.985c.37.605.741 1.2 1.112 1.786h.052l1.117-1.378v1.976c.018.276-.048.55-.19.788v.067c.395.062.794.119 1.189.17v-.066c-.132-.26-.196-.549-.186-.84V73.91c-.015-.276.05-.552.186-.793v-.062c-.3-.038-.6-.08-.894-.128-.37.48-.732.945-1.108 1.406zm5.158 2.517l-.604-.038v-1.135l.537.033c.29.003.578.046.856.129h.061v-.836h-.061c-.282.058-.57.074-.856.047l-.537-.038v-1.016l.604.038c.354-.004.704.071 1.026.218h.057v-.817c-.898-.023-1.796-.08-2.695-.161v.062c.137.256.203.545.19.836v2.374c.017.28-.05.557-.19.798v.071c.95.086 1.901.141 2.852.167v-.874h-.062c-.372.156-.78.205-1.178.142zm2.69-.712c0 .95.66 1.548 1.744 1.496.468.013.92-.165 1.253-.493.333-.329.517-.778.51-1.245v-1.772c-.011-.288.053-.575.186-.831v-.067c-.38.038-.76.067-1.14.09v.067c.139.244.205.522.19.803v1.805c0 .574-.314.873-.951.907-.637.033-.95-.266-.95-.846v-1.757c-.015-.286.051-.57.19-.822v-.066h-1.199v.066c.14.25.205.532.19.817l-.023 1.848zm6.345.855c-.139-.239-.204-.513-.185-.789v-1.98l1.112 1.382h.057c.37-.59.737-1.183 1.108-1.776v1.975c.01.296-.054.59-.186.855v.067c.395-.081.784-.167 1.179-.257v-.066c-.139-.234-.203-.504-.185-.774v-2.399c-.01-.296.054-.59.185-.855v-.066l-1.012.223-1.103 1.79-1.103-1.396c-.333.052-.665.1-1.003.143v.07c.14.241.206.517.19.794v2.399c.012.292-.054.581-.19.84v.067c.38-.053.756-.105 1.136-.167v-.08zm39.118-13.351c.848.033 1.692.135 2.524.304v7.495c-10.69-2-21.389 5.79-32.07 3.8v-7.52c6.574 1.226 13.1-1.234 19.674-2.849-.016-.256-.016-.513 0-.77-6.07 1.501-12.144 3.72-18.214 3.074v-.713c0-.798-.984-1.425-3.498-.722-1.868.518-3.589 1.515-3.589 2.969v.95c-6.968 1.766-14.268 1.766-21.237 0v-.95c0-1.454-1.715-2.451-3.583-2.969-2.515-.698-3.499-.076-3.499.722v.713c-6.079.64-12.187-1.577-18.256-3.06.02.257.02.514 0 .77 6.573 1.625 13.142 4.08 19.716 2.85v7.495c-10.69 1.994-21.39-5.795-32.07-3.8v-7.504c.84-.173 1.692-.277 2.548-.314-.182-.23-.341-.479-.475-.74-.962.063-1.917.213-2.852.446v9.024c11.193-2.593 22.392 6.07 33.59 3.477V74.7c.755.045 1.488.27 2.139.655v2.536c8.667 2.812 18.002 2.812 26.67 0v-2.545c.65-.389 1.383-.615 2.138-.66v1.125c11.199 2.593 22.392-6.07 33.59-3.477V63.31c-.92-.228-1.858-.375-2.804-.436-.122.27-.27.528-.442.769zm-33.19 13.75c-8.21 2.504-16.982 2.504-25.192 0v-7.505c8.21 2.505 16.981 2.505 25.191 0v7.505zm31.294-72.268c-.436-.472-.903-.915-1.398-1.325l-.984 1.025c-.317-.269-.649-.521-.993-.755l.722-1.21c-.791-.52-1.608-.998-2.447-1.435L97.5 2.636c-.369-.192-.748-.363-1.136-.513l.433-1.354C96.003.44 95.18.181 94.339 0l-.475 4.104c1.792.142 4.848 1.733 5.28 1.966 1.774-.048 2.434-.105 4.179-.945zM80.356 41.387c-.293-.323-.758-.426-1.16-.257-1.174.794.822 2.49 2.329 1.9-.55-.413-.96-.988-1.17-1.643zm-2.325 7.66c.271.281.832-.408.951-.83.095-.342-.276-.528-.276-.528-.401-.276-.876-.428-1.364-.437-.662.023-1.287.314-1.73.808.917-.07 1.814.296 2.42.988zm.162 3.705c.124.043.176 0 .176-.061.033-.423-.071-1.259-.475-1.283-.994-.057-1.85.746-2.23 1.582.804-.317 1.68-.4 2.529-.238zm3.517-6.796c.195-.247-.1-.56-.1-.56-.39-.495-.98-.792-1.61-.813-.49.01-.963.177-1.35.475.786.207 1.457.72 1.863 1.425.033.071.152.057.228.038.378-.072.72-.271.97-.565zm14.188 18.67c.514-.674 1.597-1.847 2.206-2.023.608-.176.774-2.375-.086-2.09-2.258.689-2.12 4.113-2.12 4.113zm2.23-.18c.459-.292.976-.478 1.516-.547 1.55-.418 1.378-2.203-.195-1.724-.832.252-1.255 1.406-1.322 2.27zm-1.322-3.733c.437-.2.352-2-.314-1.687-1.749.822-1.397 3.677-1.397 3.677.408-.788.994-1.47 1.711-1.99zM86.202 37.758c1.084.917.604 1.98.903 1.173.029-.08.528-2.09-.185-2.626-.89-.684-1.45.68-.718 1.453zm-5.095 3.42c.701.79 1.87.963 2.77.408-.708-.21-1.327-.649-1.758-1.249-.28-.432-.675-.475-.917-.327-.4.242-.233 1.044-.095 1.168zm8.45-31.708c-2.566.58-2.813-1.135-2.813-1.135s-.95 2.133 1.036 2.565c1.317.29 2.614-1.05 4.981-.114 0 0-.627-1.895-3.203-1.316zm-8.873 31.75c-.003-.023-.003-.047 0-.07-.518-1.501 1.045-2.166 1.773-.95.247-.256.389-.595.399-.95-.05-.234-.163-.45-.328-.623 0-.873-.409-.95-.062-1.382l.618-.218c.21-.062 1.084-.233 1.597.19.418.351.684.503.95.304-.413-.95.243-1.995 1.118-1.715.028-.213-.048-.574-.818-.722 0 0-1.345-.156-1.545-.152 0 0 3.019-2.598 3.522-3.054 0 0-.423 2.1.856 3.325 0 0 1.388-1.69 1.74-2.612.351-.922.237-1.078.237-1.078.238.232 2.938.992 3.684-2 .432.808-.228 3.24-3.17 3.026-.184.497-.418.975-.7 1.424 1.964 1.335 4.45 3.63 4.654 4.275 0 0-.195 2.185-4.04 2.85-.827.152-2.505.593-3.437 1.605-1.425 1.534-1.601 5.049-2.913 5.595.038 0 .889.237 2.072-.689l.604 2.142c-1.635-.036-3.252.348-4.696 1.116-.22-.568-.231-1.195-.034-1.771.371-.86.723-3.192-.622-3.182-.105.475-1.155 1.192-1.688 1.007-.061.085-.304.517.314 1.382 0 0-.765-.57-1.426-.3.09.58-.703 1.653-1.321 1.463-.023-.016-.053-.016-.076 0 0 0-.528.694.223 1.653.191.1.336.27.404.475.163.409.2.857.105 1.287 0 .143.413.546 1.212.3-.109.366-.427.632-.808.674 0 0 .798 2.341 3.36.878-.144.532-.5.982-.984 1.245 1.178.88 2.821.769 3.87-.261-.18.508-.482.965-.88 1.33 0 0 3.375.16 4.064-1.815.13.325.13.687 0 1.012.502-.257.885-.698 1.07-1.23.356-.95.864-1.363 1.563-1.425.699-.062 1.193-1.192 1.074-1.824-.152-.788-.432-4.626-.442-5.48-.01-.856 2.629-.68 5.067-1.34.452-.785.773-1.639.95-2.527.196-1.23-.74-2.579-.74-2.579 2.133 1.653 1.387 3.439.527 5.505-.319.774-.737 1.9-.437 2.484.986 1.752 1.292 3.806.86 5.77.68.129 1.379-.094 1.858-.593.537 1.123 1.174 2.196 1.902 3.206.175 1.71-.899 3.695-1.455 3.424-.727-.356-2.144-1.525-3.108-.698.24.434.313.94.204 1.425.233-.133.49-.219.756-.252.822 0 .927 1.125.713 1.938.32-.22.7-.337 1.088-.338 1.127 0 1.654 1.344.475 2.204.3.276.662.475 1.056.58.879.133 2.03-1.696 2.181-2.375.061.655.079 1.313.053 1.97 0 0 2.348-.764 1.692-4.516 0 0 .95.157.917 2.18.56-.677.862-1.53.856-2.408.047-1.296-.29-1.558-.105-2.26.439.696.656 1.509.623 2.331.44-.586.628-1.326.518-2.051-.137-.75-.54-1.425-1.136-1.9-.75-.883-.923-2.119-.442-3.173-.429.083-.873.013-1.255-.2-.509-.275-1.53-1.856-1.455-2.607.077-.75.704-1.961.58-2.85 1.322 2.936 2.995 4.75 5.547 4.75 2.648 0 4.135-2.783 4.135-5.115 0-3.396-2.257-6.521-2.257-8.777 0-1.04.765-2.612 1.701-2.612.937 0-.313 2.108-.195 3.324.084.676.35 1.316.77 1.853.072-.465.298-.891.642-1.212-.057 1.948 1.198 3.06 1.017 5.182 1.141-1.054 1.901-1.9 1.535-3.937.35.144.73.188 1.103.128-.56-.66-.475-2.945-.898-3.9.553-.038 1.041-.375 1.274-.878-1.95-.399-1.692-2.346-4.359-2.346-2.966 0-4.482 1.9-4.482 4.707 0 2.806 2.153 5.077 2.153 8.074 0 2.374-.95 3.324-2.048 3.324-1.464 0-2.852-1.458-4.007-5.443-.5-1.9-1.146-4.417-2.263-6.14-.95-.066-1.851-.449-2.557-1.088-.175.667-.564 1.26-1.107 1.686 0 0-3.066-.874-2.41-4.004 0 0 .152 2.47 2.343 3.173.41-.642.708-1.348.88-2.09.74.998 1.832 1.675 3.056 1.895.431-.658.64-1.437.594-2.223.935.544 2.036.73 3.099.527 0 0 .646-1.111.11-3.324 1.482.446 3.326-.157 4.001-.95-.7-.906-1.528-1.705-2.457-2.375 0 0 4.938 1.563 6.535-2.118-1.558-.178-3.065-.662-4.434-1.425 0 0 4.72-.404 6.683-5.7-1.62.395-3.301.468-4.948.214 0 0 5.28-1.054 5.11-5.79 0 0-.809 1.017-3.532 1.316 0 0 4.477-4.91 2.3-8.857 0 0-.176 2.298-2.876 4.455 0 0 2.852-6.398-.56-10.625.085 2.55-1.426 5.158-2.634 6.953 0 0 .41-4.445-1.792-5.604 0 0 .276 5.367-4.187 12.453-1.963 3.12-3.099 4.75-1.578 7.68.784 1.505-1.055 4.612-4.016 4.645-5.02.052.75-9.024.75-9.024.192.527.52.995.951 1.353.521-1.025.706-2.188.528-3.324-.05-.599-.197-1.186-.433-1.739.379.075.771-.001 1.093-.213 0 0-.28-2.062-.907-3.083-.19-.384-.48-.712-.837-.95.475.143 2.8.703 3.84-.565.22-.291.335-.647.329-1.011 0 0-.442.36-1.678.356 0 0 3.327-.75 2.524-4.536-.59.859-1.416 1.53-2.377 1.933-1.759.793-2.253.865-4.311.917-.875-.475-3.684-1.924-5.433-1.986-.123 0-1.269 0-1.573.95 0 0-2.04-.56-2.975.979-.404.714-.464 1.573-.162 2.337.119-.803 1.716-1.473 2.514-.475 1.231 1.79 1.902 1.135 2.985 1.975.39.293.715.666.95 1.093-1.102-.39-3.245.679-4.144.365-.37-.103-.708-.301-.979-.574-.134.907.314 1.801 1.122 2.237.671.24 1.406.24 2.077 0 .295-.105.618-.176.732-.228 1.393.603 2.852.817 3.674-.37.337-.495.408-1.125.19-1.682 0 0 .666.67.257 2.004-.247.808-1.37 1.496-2.919 1.13-.42-.106-.834-.243-1.235-.408-1.241 1.715-3.518 1.425-5.628 1.781-.61-.559-1.3-1.021-2.049-1.372-3.042-1.273-3.631-3.72-6.46-4.38-1.059-.246-1.092-.27-1.425-.522-.632-.475-1.317-.902-2.044-.451-.144.074-.267.184-.356.318.37.035.704.235.91.543.206.309.263.693.154 1.048-.033.119-.061.285-.061.285.539-.045 1.04.279 1.222.788.182.509-.002 1.077-.448 1.383.16.207.381.358.632.432.704.195 1.246-.798 2.125-.589.156.036.288.136.366.276.043.104.475 1.177-.052 1.9-.193.197-.287.47-.257.745 1.188-.304 1.778.218 1.85 1.016.242-.076.36-.475.37-.703.01-.228.057-1.187.057-1.453.261.318 1.26 1.534 2.134 2.58-.25.353-.458.734-.623 1.134.393-.184.804-.326 1.227-.423l.218.257c-4.5 2.85-3.683 6.986-3.683 6.986.224-.904.933-1.608 1.84-1.828-1.074 1.558-1.299 3.548-.6 5.305 0 0 1.003-1.387 3.327-1.206-1.089 1.108-2.02 2.36-2.766 3.723-.95 1.9-2.61 3.106-2.909 3.42-.3.313-1.583 1.53-1.844 2.318-.532 1.6-.4 1.553-.95 2.18-.55.48-.721 1.262-.424 1.928.135.252.336.464.58.613-.035-.374.126-.738.425-.965.299-.226.694-.282 1.044-.147.276.058.527.2.718.409zM96.06 7.363c-1.426 1.937-2.78-.2-2.78-.2v-.024c.617.138.636-.066 1.135-.218-.137.206-.093.483.101.636.194.154.474.132.643-.049.168-.181.17-.461.003-.644.333.095.64.266.898.499zm-21.056 4.987c.372-.573.911-1.017 1.544-1.273.186-.138.21-.261.267-.518.068-.216.032-.451-.098-.637-.129-.186-.337-.301-.563-.313-.775-.019-1.754 1.487-1.15 2.74zm6.345 3.942c-.708.047-1.122.622-1.659 1.201 2.91.404 2.62-1.263 1.66-1.206v.005zm-3.802-3.51c.255-.098.413-.355.385-.627 0-.717-.832-.641-.832-.641-1.027 0-1.863 1.961-.865 3.377.014-.97.39-1.791 1.316-2.114l-.004.005zM19.754 6.07c.437-.233 3.493-1.824 5.28-1.966L24.54 0c-.842.179-1.666.435-2.462.765l.437 1.353c-.384.152-.76.323-1.126.513l-.737-1.206c-.689.366-1.773.997-2.448 1.453l.723 1.211c-.342.235-.672.487-.989.755L16.95 3.8c-.494.403-.96.839-1.393 1.306 1.74.86 2.405.916 4.197.964zM37.34 43.01c1.507.608 3.499-1.087 2.325-1.9-.4-.168-.864-.065-1.155.257-.207.654-.61 1.228-1.155 1.643h-.015zm5.913 5.049c-.442-.494-1.067-.786-1.73-.808-.486.01-.959.162-1.36.437 0 0-.37.186-.275.528.119.422.68 1.111.95.83.605-.69 1.5-1.056 2.415-.987zm0 4.93c-.38-.836-1.236-1.639-2.23-1.582-.427.024-.531.86-.474 1.283 0 .057.052.104.18.061.847-.16 1.722-.077 2.524.238zm-5.114-6.445c.076 0 .195.033.228-.038.405-.705 1.076-1.218 1.863-1.425-.389-.299-.864-.465-1.355-.475-.629.021-1.216.318-1.606.812 0 0-.295.314-.1.56.25.294.591.494.97.566zM20.86 60.513c-.86-.261-.65 1.924-.09 2.09.56.166 1.692 1.349 2.205 2.023 0 0 .143-3.424-2.115-4.113zm-1.426 1.662c-1.573-.475-1.749 1.306-.195 1.724.54.069 1.058.255 1.517.547-.076-.865-.5-2.019-1.326-2.27h.004zm4.33.518s.352-2.85-1.397-3.676c-.665-.314-.756 1.487-.318 1.686.72.52 1.308 1.201 1.715 1.99zm8.176-26.398c-.718.537-.214 2.546-.186 2.627.295.807-.18-.257.899-1.173.75-.765.218-2.128-.694-1.444l-.02-.01zM37.644 40c-.242-.157-.632-.104-.912.328-.432.6-1.053 1.04-1.764 1.249.902.555 2.073.383 2.776-.409.167-.114.31-.916-.071-1.158l-.029-.01zM26.142 10.786c2.377-.95 3.665.404 4.976.114 1.978-.432 1.037-2.565 1.037-2.565s-.243 1.715-2.814 1.135c-2.572-.579-3.199 1.316-3.199 1.316zm12.781 29.95c.351-.139.75-.085 1.051.141.302.227.464.595.427.97.244-.147.443-.36.575-.612.299-.665.13-1.447-.418-1.928-.566-.627-.428-.58-.95-2.18-.262-.789-1.54-2-1.845-2.318-.304-.318-1.972-1.525-2.909-3.42-.746-1.362-1.677-2.615-2.766-3.723 2.305-.18 3.327 1.206 3.327 1.206.694-1.757.472-3.744-.594-5.305.882.24 1.564.94 1.778 1.828 0 0 .813-4.136-3.684-6.986l.219-.257c.422.098.833.24 1.226.423-.161-.4-.367-.78-.613-1.135.884-1.045 1.901-2.242 2.139-2.579 0 .266.047 1.206.057 1.453.01.247.133.627.375.703.072-.798.661-1.32 1.845-1.016.033-.119.033-.366-.257-.746-.551-.726-.095-1.8-.052-1.9.078-.138.21-.238.366-.275.884-.209 1.425.784 2.129.589.25-.075.472-.226.632-.432-.446-.306-.63-.874-.448-1.383.182-.51.684-.833 1.223-.788 0 0-.033-.166-.062-.285-.11-.358-.053-.747.158-1.058.21-.31.552-.508.926-.538-.091-.135-.216-.244-.361-.318-.723-.475-1.426 0-2.04.451-.351.252-.385.276-1.425.523-2.852.66-3.418 3.106-6.46 4.379-.756.35-1.455.813-2.072 1.373-2.106-.342-4.387-.067-5.623-1.782-.402.165-.815.301-1.236.409-1.55.366-2.671-.323-2.918-1.13-.41-1.335.252-2.005.252-2.005-.214.559-.141 1.186.194 1.682.799 1.187 2.277.973 3.67.37.119.052.437.124.732.228.673.241 1.409.241 2.082 0 .808-.435 1.255-1.33 1.117-2.237-.263.27-.59.467-.951.575-.898.313-3.042-.755-4.145-.366.236-.427.56-.8.95-1.092 1.075-.841 1.755-.186 2.986-1.976.794-.983 2.376-.314 2.514.475.302-.764.242-1.622-.161-2.337-.951-1.539-2.98-.978-2.98-.978-.3-.95-1.426-.95-1.574-.95-1.749.061-4.553 1.515-5.433 1.985-2.053-.052-2.552-.123-4.306-.917-.961-.403-1.786-1.074-2.376-1.933-.785 3.8 2.519 4.536 2.523 4.536-1.235 0-1.677-.356-1.682-.356-.004.364.111.719.328 1.012 1.04 1.268 3.327.707 3.845.565-.138.061-.418.275-.841.95-.623 1.02-.908 3.082-.908 3.082.324.212.718.288 1.098.214-.253.559-.41 1.156-.466 1.767-.178 1.135.005 2.298.523 3.324.433-.357.762-.825.95-1.353 0 0 5.776 9.08.756 9.024-2.96-.034-4.805-3.14-4.016-4.645 1.516-2.921.385-4.56-1.583-7.68C9.283 6.967 9.558 1.6 9.558 1.6c-2.2 1.158-1.796 5.604-1.796 5.604C6.555 5.438 5.067 2.85 5.152.28c-3.422 4.227-.56 10.644-.56 10.644-2.69-2.175-2.88-4.474-2.88-4.474-2.187 3.947 2.3 8.858 2.3 8.858-2.72-.3-3.537-1.316-3.537-1.316-.176 4.75 5.105 5.79 5.105 5.79-1.646.253-3.325.18-4.943-.214 1.958 5.295 6.683 5.7 6.683 5.7-1.37.762-2.877 1.246-4.435 1.424 1.611 3.705 6.55 2.152 6.55 2.152-.93.668-1.758 1.468-2.457 2.374.68.793 2.514 1.397 4.002.95-.537 2.209.104 3.325.104 3.325 1.065.204 2.167.016 3.104-.527-.046.785.162 1.564.594 2.222 1.214-.188 2.313-.828 3.075-1.79.17.741.467 1.448.875 2.09 2.191-.703 2.348-3.173 2.348-3.173.656 3.13-2.415 4.004-2.415 4.004-.543-.426-.932-1.019-1.107-1.686-.704.64-1.603 1.023-2.553 1.087-1.116 1.724-1.768 4.251-2.262 6.141-1.145 3.985-2.548 5.443-4.012 5.443-1.093 0-2.048-.988-2.048-3.324 0-3.012 2.158-5.296 2.158-8.074 0-2.779-1.521-4.707-4.487-4.707-2.662 0-2.405 1.947-4.354 2.346.243.485.727.804 1.27.836-.4.95-.334 3.24-.895 3.9.373.06.755.015 1.103-.129-.352 2.028.39 2.883 1.535 3.937-.161-2.123 1.07-3.244 1.013-5.181.344.32.57.747.642 1.21.42-.536.687-1.176.774-1.852.12-1.206-1.136-3.324-.2-3.324.937 0 1.707 1.572 1.707 2.612 0 2.256-2.258 5.381-2.258 8.777 0 2.332 1.483 5.115 4.135 5.115 2.553 0 4.221-1.833 5.547-4.75-.128.88.504 2.138.575 2.85.072.713-.95 2.332-1.45 2.608-.38.212-.825.283-1.254.2.478 1.054.306 2.289-.442 3.172-.598.474-1.002 1.15-1.136 1.9-.11.726.077 1.465.518 2.052-.036-.823.181-1.637.623-2.332.185.703-.152.95-.105 2.26-.006.878.297 1.73.856 2.408-.043-2.023.917-2.18.917-2.18-.642 3.72 1.692 4.484 1.692 4.484-.026-.658-.009-1.316.052-1.971.148.665 1.303 2.493 2.182 2.375.394-.105.756-.304 1.055-.58-1.183-.86-.66-2.204.476-2.204.386.002.764.12 1.083.338-.209-.813-.104-1.938.718-1.938.266.034.523.12.756.252-.108-.484-.038-.99.2-1.425-.951-.827-2.377.342-3.11.698-.555.27-1.625-1.715-1.454-3.424.729-1.02 1.36-2.104 1.887-3.24.482.5 1.182.722 1.864.594-.432-1.964-.126-4.018.86-5.77.295-.59-.119-1.71-.442-2.485-.856-2.066-1.616-3.851.518-5.504 0 0-.95 1.349-.746 2.579.177.888.498 1.742.95 2.527 2.462.655 5.077.489 5.077 1.339s-.29 4.692-.442 5.48c-.124.632.309 1.734 1.074 1.825.765.09 1.207.508 1.564 1.424.183.533.567.974 1.069 1.23-.128-.325-.128-.686 0-1.011.694 1.976 4.064 1.814 4.064 1.814-.395-.366-.695-.822-.875-1.33 1.046 1.032 2.69 1.143 3.865.262-.483-.265-.836-.714-.98-1.245 2.562 1.463 3.36-.878 3.36-.878-.378-.036-.7-.293-.817-.656.794.247 1.203-.157 1.212-.3-.094-.429-.058-.877.105-1.286.068-.203.21-.373.4-.475.755-.95.237-1.63.223-1.653-.022-.015-.05-.015-.072 0-.618.19-1.426-.883-1.321-1.463-.637-.27-1.426.3-1.426.3.623-.865.38-1.297.314-1.383-.528.186-1.578-.513-1.683-1.007-1.35 0-.993 2.323-.623 3.183.196.576.184 1.202-.033 1.771-1.444-.768-3.06-1.152-4.696-1.116l.599-2.142c1.188.95 2.04.689 2.077.689-1.316-.547-1.497-4.061-2.914-5.595-.95-1.012-2.614-1.454-3.44-1.606-3.841-.683-4.036-2.85-4.036-2.85.204-.626 2.69-2.92 4.653-4.274-.284-.449-.52-.926-.703-1.425-2.938.214-3.598-2.218-3.17-3.025.75 2.992 3.445 2.232 3.688 2 0 0-.114.156.237 1.078.352.921 1.735 2.612 1.735 2.612 1.284-1.25.86-3.325.86-3.325.476.475 3.518 3.054 3.518 3.054-.195 0-1.54.152-1.54.152-.77.147-.846.508-.818.722.875-.28 1.526.75 1.117 1.715.257.2.523.047.951-.304.513-.423 1.383-.252 1.597-.19l.618.218c.342.475-.08.508-.062 1.382-.165.173-.278.389-.328.622.009.355.15.694.395.95.727-1.201 2.29-.536 1.773.95.003.024.003.048 0 .071.181-.249.443-.428.741-.508zM23.713 6.863c-.167.183-.166.463.003.644s.448.203.643.05c.194-.154.238-.431.1-.637.476.152.514.356 1.136.218v.024s-1.354 2.137-2.78.2c.261-.238.576-.409.917-.499h-.019zm18.989 2.726c-.226.011-.434.127-.563.313-.129.186-.163.422-.093.637.057.257.076.38.266.518.643.257 1.19.709 1.564 1.292.599-1.254-.38-2.76-1.155-2.76h-.02zm-3.513 7.899c-.542-.58-.95-1.155-1.659-1.202-.96-.057-1.25 1.61 1.66 1.202zm3.446-2.603c1.003-1.425.167-3.377-.86-3.377 0 0-.837-.076-.832.641-.03.28.141.541.409.627.903.323 1.278 1.145 1.283 2.109zm13.451 20.997c.006-.31.163-.598.42-.77.258-.174.584-.21.873-.099-.304 1.13-.85.48-1.293.87zm-6.82-1.21c.317-.037.632.083.844.321.213.238.297.564.225.875-.318-.39-1.012.185-1.07-1.197zm4.682 1.343c-.129-.294 0-.37 0-.37s.347.209.556.142c.354-.102.73-.102 1.083 0 .013.049-.006.1-.047.129-.265-.022-.524.086-.694.29-.152.35-.205.28-.333.294-.128.014-.142.061-.142.299 0 .237-.086.475-.252.475-.014-.426-.072-.85-.171-1.264v.005zm6.55-4.668h-2.116v-1.592c-.047-.406.143-.804.49-1.023.347-.218.788-.218 1.135 0 .347.219.538.617.49 1.023v1.592zm-4.278-9.395l.346 1.506c.446-.075.895-.126 1.346-.152v-1.553c1.032-.053 2.066-.053 3.099 0v1.52c.452.025.903.076 1.35.151l.346-1.505c.927.132 1.839.351 2.724.655l-1.055 3.292-1.017 1.111c-2.521-.888-5.27-.888-7.79 0l-1.023-1.111-1.05-3.292c.878-.298 1.782-.512 2.7-.64l.024.018zM57.855 38.1c.65-.1.808-.475 1.117-.988-.57-.351-.542-.337-.704-.422-.276-.148-.2-.2-.432-.4.396-.501.605-1.126.589-1.766-.274-.27-.634-.439-1.017-.475.1-.204-.057.114.608-1.12-.689-.134-1.245-.314-1.901-.077.057-.128.043-.104.475-.617-.382-.374-.891-.59-1.426-.608l.6-4.009c2.382-.788 4.955-.788 7.338 0l1.25 8.179c-.738-.214-1.5-.34-2.267-.375-1.863 0-3.023.95-3.023 2.531 0 1.582 1.283 2.508 3.184 2.508.933 0 1.863-.107 2.771-.318l.124.812c-1.64-.186-3.836 0-4.753-.095-.66-.115-1.31-.274-1.949-.475l.442-.356c-.418-.485-.708-.637-1.05-1.957l.024.028zm-8.718-3.904c.498.011.975.204 1.34.542.105-.137.164-.303.167-.475.052-.475-.713-.841-.713-.841.506-.369 1.21-.297 1.63.166.233-.565-.693-1.235-.917-1.235.47-.34 1.1-.363 1.592-.057.185.156.346.338.476.542-.128-.65.252-1.291.884-1.491-.084.389-.001.795.228 1.12.142.2.301.388.475.56 0 0 .171-.84.704-.873.256-.033.517.018.741.147-.348.478-.394 1.111-.119 1.634.282-.541.906-.81 1.493-.641-.26.396-.435.84-.518 1.306.405-.107.835-.054 1.202.147-.042.365-.155.719-.332 1.04-.514.556-1.122.247-1.222.675-.012.275-.076.546-.19.798-.171.304-1.05.09-1.05.09-.031.113-.006.235.066.328.309.1.475.185.585.36.012.063.012.128 0 .19 0 .414-.594.75-.851.756-.59 0-1.098-.238-1.103-.604-.005-.365.79-.147.704-.55-.038-.195-.262-.19-.262-.19-.185.427-1.502.332-1.483.038.01-.721.094-1.44.252-2.142-.138.057-.273.122-.404.194-.19.105-1.321-.213-1.483.086 0 0 .841.133.95.65 0 .105.262.062.305.095.043.034.242.29.043 1.117-.167.702.67.294.67.688 0 .394-.813.618-1.108.618-.67 0-1.311-1.017-.242-1.306.074-.093.097-.215.062-.328 0 0-.875.214-1.046-.09-.099-.237-.177-.482-.233-.732-.085-.17-.641-.228-.893-.475-.555-.447-.721-1.221-.4-1.857zm4.25 6.34c.475 0 1.107-.864 1.036-1.358.127.072.272.108.418.105-.775 2.08-2.125 2.1-2.904 0 .145.002.287-.034.413-.105-.066.504.552 1.368 1.037 1.368v-.01zm0-1.424c1.093 0 .404.95 0 .95s-1.07-.922 0-.922v-.028zm-4.406-2.489c.31-.106.653-.045.907.162.186.175.148.707.609.95-.019.55.222 1.078.651 1.424.665.66 1.14 2.161 2.239 2.161 1.098 0 1.578-1.344 2.143-2.108.846-.357.718-1.458.718-1.458.28-.24.45-.583.475-.95 0 0 .428-.186.542-.224.114-.038.19.053.252.124.197.2.419.375.66.518-.175.28-.593.304-1.04.194.085.646.475 2.01.95 2.475-.308.125-.657.106-.95-.052.817.522.67 2.583-.105 3.533 0-.688-.123-1.738-.917-2.08 1.012 1.382-.11 3.6-1.592 3.875.593-.927.526-2.13-.167-2.987 1.426 2.503-1.872 2.798-1.031 4.75-.26-.09-.51-.206-.746-.347-.666-2 .408-4.075.408-4.075s-1.587 1.743-.898 3.719c-1.093-.979-.913-2.589-.195-3.505-.817.256-1.093 1.282-1.064 2.246-1.769-2.147-.352-3.572.266-4.146-.642.066-1.307.95-1.654 1.634-.78-1.34-.476-2.47.39-3.111-.384.195-.838.195-1.222 0 .998-1.207.998-1.781 1.045-2.09-.38.028-.731-.207-.85-.57.057.028.076.005.176-.033v-.029zm-.951.632c0 .261-.152.603-.437.603-.11 0-.095 0-.12-.085-.08-.271-.726-.556-.95-.585.467-.278 1.056-.24 1.483.095l.024-.028zm-.856.95c-.145.151-.362.212-.565.156-.268-.385-.766-.537-1.203-.365.699-.95 2.163-.19 1.745.242l.023-.033zm-2.172.95c.171-.756.95-.775 1.474-.475.13.131.13.343 0 .475-.183.089-.397.089-.58 0-.123-.122-.29-.189-.462-.186-.172.003-.337.075-.456.2l.024-.014zm2.481 3.875c.168.074.36.074.528 0-.656-.427-.95-1.862-1.103-2.465-.152-.603-.537-.365-.884-1.002.651.09.95-.366.856-.812.315-.023.588-.227.698-.522.418-.022.757-.345.799-.76.123.26.323.703.27.783-.253.412-.532.807-.836 1.183.16.278.45.457.77.475-.478 1.193-.174 2.556.766 3.434.109.936.632 1.774 1.425 2.284.1.067.195.09.105.247-.428.75-.998-.38-1.782-.798-.386-.176-.715-.455-.951-.807.226.074.474.049.68-.071-.452-.029-1.113-.623-1.364-1.155l.023-.014zm1.474 7.713c-.013.158-.013.317 0 .475-.138.327-.138.695 0 1.021-.54-.206-.84-.783-.699-1.344.247-.693.737-.247.699-.152zm1.079.713c-.107.317-.107.66 0 .978-.77-.204-1.084-1.97-.314-2.023.174.017.329.118.414.27-.083.25-.11.514-.081.775h-.02zm.75.712c-.555-.366-.57-1.605 0-1.605.182-.026.361.055.463.207.101.152.106.348.013.505-.48.494-.475.831-.456.893h-.02zm6.18-1.268c-.183-.285-.29-.612-.314-.95.057-.299.651-.831.803-.318-.447.25-.649.785-.48 1.268h-.01zm.789.204c-.03.112-.047.227-.048.342-.076-.049-.142-.112-.195-.185-.689-1.06.167-1.425.343-1.425.102.03.181.111.209.214-.281.273-.395.675-.3 1.054h-.01zm-.138-1.871c.104-.475.746-.11 1.212.522.143.352.047 0-.475.133-.086-.252-.333-.414-.6-.394-.023-.095-.067-.184-.128-.261h-.01zm1.426 1.672c0-.033-.542.57-.475.912-.11-.053-.79-.808-.357-1.425.079-.1.195-.166.322-.18.127-.014.254.023.353.104.168.146.228.38.152.589h.005zm5.542-1.795c-.769.433-1.513.909-2.23 1.424-.341.243-.665.979-1.359.95-.622-.1-1.258-.089-1.877.034l.228-.442c.159-.356.06-.774-.242-1.021 1.15.09 1.758-.428 2.851-1.22.414-.324.6-.576.628-.718.1-.475-.475-.532-.898-2.375.82-.186 1.668-.215 2.5-.085.236.172.456.366.656.58.028.127.052.265.08.403.133.646.76.992.794 1.349.09.95-.442.722-.618.779-.179.103-.352.217-.518.342h.005zm.95.503c.09-.11.243-.123.376.033.261.304.128.086-.152.337-.22.198-.372.461-.433.75-.047-.051-.356-.446.214-1.12h-.004zm.172 2.251s-.343-1.078.275-1.629c.243-.214.514.067.585.38-.242.16-.419.4-.5.68-.146.166-.113.132-.356.57h-.004zm.917.342l-.057.18s-.518-.835.071-1.396c.1-.13.266-.192.428-.16.161.033.29.153.333.312.052.627-.59.689-.77 1.064h-.005zm5.228-3.077c-.147-.323-.508-.746-.836-.713.784.95.423 2.375-.214 2.779.016-.38-.045-.758-.18-1.112.132.717-.376 1.966-1.455 1.966-2.277 0-1.93 0-1.811-.076.25-.21.382-.529.356-.854-.054-.347-.343-.61-.693-.632-.167 0-.067.057-.167-.162-.077-.174-.204-.321-.366-.422-.052-.18-.15-.344-.285-.475-.043-.385.713-.242 1.554.617.19.195.899.095 1.217.095.318 0 .333-.366.447-1.03.09-.475.028-.756-.243-1.682-.27-.926-2.528-.109-3.431-1.035-.416-.444-.866-.856-1.345-1.23-1.693-.242-2.377 0-3.803.266-2.31.598-4.021 1.002-4.03.992-.01.432-.191.842-.504 1.14.009-.267-.105-.524-.31-.698.096 1.292-.517 2.375-1.159 2.769.22-.214.277-.547.138-.822 0 .219-2.158 2.176-2.548 2.375-.014.197-.117.376-.28.487-.163.11-.368.141-.556.083.07-.09.146-.173.228-.252.202-.34.137-.777-.157-1.044-.294-.267-.734-.291-1.055-.058-.137-.198-.363-.317-.604-.317s-.467.119-.604.317c-.14-.172-.361-.258-.582-.227-.22.03-.409.175-.497.38 0-.594.195-.95 1.032-.875.55-.376 1.253-.447 1.868-.19.623-.375 1.34-1.838 1.659-2.199.433.175.897.262 1.364.257-.328-.95-.342-1.373 0-1.795.993.18 2.025-.551 2.438-1.13 1.317-.75 2-2.261 1.692-3.743.442-.029 1.108.394 2.32.517 1.212.124 4.544-.247 5.913.38 1.368.627 4.078.637 4.078-1.458-.064-.828-.782-1.45-1.612-1.396-.299 0-2.148.166-2.072 1.168-.366-.1-.612-.443-.59-.821-1.269.364-2.58.56-3.902.584-1.425 0-2.614-.656-2.614-1.938s.95-1.966 2.453-1.966c1.188 0 2.058.475 2.909.475 1.559 0 .85-1.625.475-1.777 1.279-.665 2.044.979 1.725 1.458 1.973-1.424 4.197.713 4.069 1.777-.48-.393-1.076-.618-1.697-.641-.912 0-1.345 1.059-3.484 0 .119.546.894.788.894.788-2.215.522-2.092-.912-4.677-.864-.95 0-1.184.29-1.184.769 0 .807 1.54 1.083 3.237.385.95.427 2.614.58 3.688-.143.416.037.827-.105 1.132-.39 3.864.348 3.027 5.353-.542 5.334-.685.019-1.368-.071-2.025-.266 1.165.437 1.288 2.375 3.113 2.375s1.973 1.13 2.068 1.834c-.302-.299-.707-.469-1.131-.475.858.544 1.327 1.532 1.207 2.54h-.029zm-8.123-11.19c-.434.153-.894.222-1.354.204-.371 0-.704-.128-.704-.256 0-.257 1.407-.186 2.058.052zm13.704 15.336c-1.246-.214-2.762.689-2.762.689.632-2.736 2.339-3.016 2.628-3.13-.086-.287-.127-.585-.123-.884.038-.236.102-.467.19-.688-.817-.67-1.904-.911-2.928-.651 0 0 1.388-1.938 2.738-1.938.767-.046 1.523.2 2.115.689.086.042.19-.043.285-.053.071-.27.138-.536.2-.807-.558-.65-1.334-1.073-2.182-1.192 0 0 1.188-1.32 2.405-1.344.097-.007.194-.007.29 0 0-.09.033-.185.048-.276-.725-.125-1.375-.523-1.816-1.111l-.361-.223c-.341-.21-.619-.51-.804-.865-.28-.533-.308-1.163-.076-1.719.14-.332.34-.636.59-.898.29-.268.484-.623.556-1.011.071-.233.162-.532.295-.95.242-.717 1.017-1.567 1.82-2.375l.166-.17c.062-.063.138-.134.243-.224V18.152h-.4c-.629-.046-1.253-.14-1.867-.284l.774-1.04c.203-.244.424-.47.661-.68-.085-.458.05-.93.366-1.273.18-.383.18-.827 0-1.21h-.071c-.222.034-.433.122-.613.256-.319.226-.694.36-1.084.384-.119 0-.237-.014-.352-.042-.378-.11-.712-.338-.95-.651l-.043-.048c-.116.09-.211.204-.28.333-.566.793-.276 2.232-.276 2.232-.343-.17-1.735-1.425-1.635-2.892l-.243.394s-.88-1.392-.732-2.313H44.68c.147.921-.732 2.313-.732 2.313l-.238-.394c.086 1.486-1.302 2.721-1.644 2.911 0 0 .285-1.425-.276-2.232-.073-.128-.17-.241-.285-.333l-.038.048c-.24.313-.572.54-.95.65-.114.03-.23.043-.348.043-.39-.024-.765-.157-1.083-.384-.181-.134-.391-.222-.614-.257h-.07c-.181.384-.181.828 0 1.211.31.338.444.803.36 1.254.25.213.48.446.69.698.066.072.774 1.04.774 1.04-.612.144-1.235.24-1.863.285h-.404v16.006c.105.09.186.162.247.223l.167.171c.803.813 1.578 1.663 1.815 2.375.133.4.228.698.3.95.058.394.248.757.537 1.03.246.264.445.568.59.898.23.557.201 1.186-.077 1.72-.186.354-.464.652-.803.864l-.361.223c-.453.574-1.107.954-1.83 1.064l.043.276c.096-.007.193-.007.29 0 1.216.023 2.405 1.344 2.405 1.344-.848.12-1.624.543-2.182 1.192.062.27.128.537.2.807.1 0 .204.095.285.052.593-.486 1.348-.732 2.115-.688 1.35 0 2.742 1.938 2.742 1.938-1.024-.26-2.11-.019-2.928.65.089.222.153.453.19.689.001.3-.042.597-.128.883.29.114 2.001.395 2.629 3.13 0 0-1.517-.902-2.757-.688 2.928 6.174 8.27 11.93 17.99 14.125 9.725-2.2 15.068-7.975 17.996-14.13z" transform="translate(-80 -844) translate(80 844)"/>
            </g>
        </g>
    </g>
</svg>
