<svg xmlns="http://www.w3.org/2000/svg" width="444" height="35" viewBox="0 0 444 35">
    <g fill="none" fill-rule="evenodd">
        <g fill-rule="nonzero">
            <g>
                <path fill="#FFF" d="M222.618 1.164h-23.836v5.309h16.8l-18.055 21.09v5.728h25.091v-5.436h-18l18-21.382v-5.31zm-61.982 5.363h10.037v26.818h5.436V6.527h10V1.164h-25.473v5.363zm-11.218 5.928c0-5.891-4.873-11.164-10.927-11.291h-11.927v32.181H132v-9.69h4.927L148.127 35l3.782-3.727-8.709-8.728c3.69-1.945 6.218-5.727 6.218-10.09zm-11.309 5.89h-6.09V6.564h6.09c3.31 0 6.018 2.636 6.018 5.89-.018 3.255-2.709 5.891-6.018 5.728v.163zM95.836 1.164l-12.4 32.181h5.691l2.328-6.272h15.309l2.327 6.272h5.69L102.365 1.164h-6.528zm-2.309 20.89L99.11 7.528l5.582 14.528H93.527m-26.2-.528c.073 3.982-3.163 7.2-7.127 7.2-3.982 0-7.218-3.236-7.09-7.2V1.164h-5.437v20.363c0 6.891 5.618 12.51 12.527 12.364 6.91 0 12.51-5.618 12.51-12.51V1.165h-5.383v20.363zm-33.582-4.636C33.745 7.6 26.164.018 16.873.018 7.563.036 0 7.6 0 16.728 0 26.035 7.564 33.6 16.873 33.6c3.654 0 7.054-1.164 9.818-3.164l4.236 4.219 3.764-3.746-4.2-4.2c2.036-2.636 3.254-6.073 3.254-9.818m-7.09 6.164l-6.237-6.237-3.745 3.764 6.2 6.2c-1.746 1.073-3.8 1.673-6 1.673-6.382 0-11.564-5.182-11.564-11.455 0-6.364 5.182-11.564 11.564-11.564 6.363 0 11.563 5.182 11.563 11.564 0 2.164-.654 4.273-1.781 6.055z" transform="translate(-80 -769) translate(80 769)"/>
                <path fill="#B2B2B2" d="M431.582 1.164h-6.527l-12.4 32.181h5.69l2.328-6.272h15.309l2.327 6.272H444L431.582 1.164zm-8.837 20.89l5.582-14.363 5.582 14.527h-11.164v-.163zM389.527 5.383c4.182 0 7.837 2.29 9.782 5.69l4.982-2.108C401.509 3.636 395.945 0 389.527 0c-9.2 0-16.654 7.473-16.654 16.545 0 9.219 7.454 16.673 16.654 16.673 6.418 0 11.982-3.636 14.764-8.963l-4.982-2.11c-1.945 3.4-5.6 5.691-9.782 5.691-6.218 0-11.29-5.072-11.29-11.272 0-6.11 5.054-11.182 11.29-11.182zm-34.2 27.963h5.437V1.164h-5.437v32.181zm-14.2-20.872c0-5.91-4.945-11.182-11.127-11.31h-12.145v32.182h5.527v-9.709h5.018L339.8 35l3.855-3.727-8.873-8.837c3.763-1.8 6.345-5.6 6.345-9.963zm-11.527 5.89h-6.2v-11.8h6.182c3.382 0 6.127 2.637 6.127 5.91.018 3.254-2.727 5.89-6.109 5.89zm-44.764 15.019h5.455V22.255h13.073v-5.037H290.29V6.455h14.582V1.327h-20v32.055h-.037zM254.2 1.164l-12.4 32.181h5.69l2.328-6.272h15.31l2.327 6.272h5.69L260.727 1.164H254.2zm-2.31 20.89l5.583-14.527 5.582 14.528h-11.237.073z" transform="translate(-80 -769) translate(80 769)"/>
            </g>
        </g>
    </g>
</svg>
