<svg xmlns="http://www.w3.org/2000/svg" xmlns:xlink="http://www.w3.org/1999/xlink" width="80" height="80" viewBox="0 0 80 80">
    <defs>
        <circle id="vwcov2qsca" cx="40" cy="40" r="40"/>
    </defs>
    <g fill="none" fill-rule="evenodd">
        <g>
            <g>
                <g transform="translate(-680 -305) translate(450 301) translate(230 4)">
                    <mask id="25ivf041ib" fill="#fff">
                        <use xlink:href="#vwcov2qsca"/>
                    </mask>
                    <use fill="#E8F1FF" xlink:href="#vwcov2qsca"/>
                    <g mask="url(#25ivf041ib)">
                        <g fill="#106FFF" fill-rule="nonzero">
                            <path d="M5.278 40h22.433c2.846 0 5.155-2.31 5.155-5.155 0-1.732-.866-3.34-2.31-4.33-2.309-1.567-4.412-2.721-5.772-3.422-1.238 1.484-2.887 2.804-5.031 3.587-1.031.372-2.145.578-3.258.578-1.114 0-2.186-.165-3.217-.536-2.144-.743-3.835-2.062-5.072-3.588-1.36.701-3.422 1.897-5.773 3.423-1.443.948-2.31 2.598-2.31 4.33C.124 37.69 2.434 40 5.279 40z" transform="translate(23.333 18.333)"/>
                            <path d="M5.98 18.35c.247.825.66 2.392 1.649 3.3.742 2.721 2.886 5.896 6.35 7.134.825.288 1.691.453 2.598.453.866 0 1.732-.165 2.557-.453 3.464-1.238 5.608-4.372 6.35-7.135.99-.907 1.403-2.474 1.65-3.298.371-1.32.742-3.176-.247-4.495-.042-.042-.083-.083-.124-.165.082-.454.124-.907.165-1.32 1.154-7.752-3.134-8.247-3.629-8.247-.041 0-.041-.042-.083-.042-.494-2.02-3.38-4.123-6.103-3.587-2.68.577-8.288-.083-8.288-.083-.083 1.196.948 2.021.948 2.021-4.742 2.887-3.876 9.072-3.422 11.258-.042.041-.083.082-.124.165-.99 1.32-.619 3.175-.248 4.495zm2.474-3.628h.123v-.042c-.123-.412-.7-2.762 1.32-4.165 1.65.372 4.165.454 7.505-.99 6.516-2.803 7.093 5.197 7.093 5.197h.124c.66 0 1.36.536.618 3.092-.577 2.021-1.113 2.598-1.484 2.598-.372 2.392-2.227 5.444-5.279 6.516-.618.206-1.278.33-1.938.33-.66 0-1.32-.124-1.938-.33-3.01-1.072-4.907-4.124-5.278-6.516-.413-.04-.949-.618-1.485-2.598-.742-2.598-.041-3.092.619-3.092z" transform="translate(23.333 18.333)"/>
                        </g>
                    </g>
                </g>
            </g>
        </g>
    </g>
</svg>
